<svg width="8" height="14" viewBox="0 0 8 14" fill="none" xmlns="http://www.w3.org/2000/svg">
<path fill-rule="evenodd" clip-rule="evenodd" d="M0.646894 0.645917C0.693339 0.599354 0.748515 0.562411 0.80926 0.537205C0.870005 0.511998 0.935126 0.499023 1.00089 0.499023C1.06666 0.499023 1.13178 0.511998 1.19253 0.537205C1.25327 0.562411 1.30845 0.599354 1.35489 0.645917L7.35489 6.64592C7.40146 6.69236 7.4384 6.74754 7.46361 6.80828C7.48881 6.86903 7.50179 6.93415 7.50179 6.99992C7.50179 7.06568 7.48881 7.1308 7.46361 7.19155C7.4384 7.2523 7.40146 7.30747 7.35489 7.35392L1.35489 13.3539C1.26101 13.4478 1.13367 13.5005 1.00089 13.5005C0.868118 13.5005 0.74078 13.4478 0.646894 13.3539C0.553007 13.26 0.500262 13.1327 0.500262 12.9999C0.500262 12.8671 0.553007 12.7398 0.646894 12.6459L6.29389 6.99992L0.646894 1.35392C0.60033 1.30747 0.563387 1.2523 0.538181 1.19155C0.512974 1.13081 0.5 1.06568 0.5 0.999917C0.5 0.93415 0.512974 0.869029 0.538181 0.808284C0.563387 0.747539 0.60033 0.692363 0.646894 0.645917Z" fill="#ADB5BD"/>
</svg>
