<svg width="28" height="28" viewBox="0 0 28 28" fill="none" xmlns="http://www.w3.org/2000/svg">
<path d="M12.666 10H15.3327V7.33335H12.666M13.9993 24.6667C8.11935 24.6667 3.33268 19.88 3.33268 14C3.33268 8.12002 8.11935 3.33335 13.9993 3.33335C19.8793 3.33335 24.666 8.12002 24.666 14C24.666 19.88 19.8793 24.6667 13.9993 24.6667ZM13.9993 0.666687C12.2484 0.666687 10.5146 1.01156 8.8969 1.68163C7.27923 2.35169 5.80937 3.33382 4.57126 4.57193C2.07077 7.07241 0.666016 10.4638 0.666016 14C0.666016 17.5362 2.07077 20.9276 4.57126 23.4281C5.80937 24.6662 7.27923 25.6484 8.8969 26.3184C10.5146 26.9885 12.2484 27.3334 13.9993 27.3334C17.5356 27.3334 20.927 25.9286 23.4274 23.4281C25.9279 20.9276 27.3327 17.5362 27.3327 14C27.3327 12.2491 26.9878 10.5152 26.3177 8.89757C25.6477 7.2799 24.6656 5.81004 23.4274 4.57193C22.1893 3.33382 20.7195 2.35169 19.1018 1.68163C17.4841 1.01156 15.7503 0.666687 13.9993 0.666687ZM12.666 20.6667H15.3327V12.6667H12.666V20.6667Z" fill="#21BF88"/>
</svg>
