<svg width="54" height="32" viewBox="0 0 54 32" fill="none" xmlns="http://www.w3.org/2000/svg">
<rect x="1.68281" y="0.897656" width="50.6339" height="30.2046" rx="2.4" stroke="#4D5EFF" stroke-width="1.6"/>
<path d="M37.5404 17.2474C37.5404 17.7442 37.4144 18.1942 37.1624 18.5974C36.9176 19.0006 36.5828 19.321 36.158 19.5586C35.7404 19.7962 35.2652 19.915 34.7324 19.915C34.1564 19.915 33.656 19.7746 33.2312 19.4938C32.8136 19.213 32.4896 18.8098 32.2592 18.2842C32.0288 17.7586 31.9136 17.1286 31.9136 16.3942C31.9136 15.4654 32.0324 14.6806 32.27 14.0398C32.5148 13.3918 32.8604 12.9058 33.3068 12.5818C33.7532 12.2506 34.2788 12.085 34.8836 12.085C35.366 12.085 35.8088 12.1894 36.212 12.3982C36.6224 12.607 36.968 12.9058 37.2488 13.2946L36.4172 14.2018C36.2444 13.9354 36.0212 13.7266 35.7476 13.5754C35.474 13.417 35.1788 13.3378 34.862 13.3378C34.538 13.3378 34.2572 13.4242 34.0196 13.597C33.782 13.7698 33.5984 14.0218 33.4688 14.353C33.3392 14.677 33.2672 15.0694 33.2528 15.5302C33.3536 15.3574 33.4832 15.2098 33.6416 15.0874C33.8 14.9578 33.9836 14.8606 34.1924 14.7958C34.4012 14.7238 34.6244 14.6878 34.862 14.6878C35.3732 14.6878 35.8304 14.803 36.2336 15.0334C36.6368 15.2566 36.9536 15.5626 37.184 15.9514C37.4216 16.333 37.5404 16.765 37.5404 17.2474ZM34.7324 18.6946C34.9916 18.6946 35.2292 18.6298 35.4452 18.5002C35.6612 18.3634 35.834 18.187 35.9636 17.971C36.0932 17.7478 36.158 17.5066 36.158 17.2474C36.158 16.9882 36.0932 16.7542 35.9636 16.5454C35.834 16.3294 35.6612 16.1602 35.4452 16.0378C35.2364 15.9082 35.0024 15.8434 34.7432 15.8434C34.484 15.8434 34.2464 15.9082 34.0304 16.0378C33.8144 16.1602 33.6416 16.3294 33.512 16.5454C33.3896 16.7542 33.3284 16.9882 33.3284 17.2474C33.3284 17.5066 33.3932 17.7478 33.5228 17.971C33.6524 18.187 33.8252 18.3634 34.0412 18.5002C34.2572 18.6298 34.4876 18.6946 34.7324 18.6946Z" fill="#4D5EFF"/>
<path d="M27.6605 19.807L25.5761 14.1478H27.0773L28.5029 18.4894L29.9393 14.1478H31.3109L29.2373 19.807H27.6605Z" fill="#4D5EFF"/>
<path d="M19.5492 19.807V12.139H22.8C23.1528 12.139 23.4768 12.211 23.772 12.355C24.0672 12.499 24.3228 12.6934 24.5388 12.9382C24.762 13.183 24.9348 13.4566 25.0572 13.759C25.1796 14.0614 25.2408 14.371 25.2408 14.6878C25.2408 15.1198 25.14 15.5302 24.9384 15.919C24.7368 16.3078 24.4596 16.6246 24.1068 16.8694C23.754 17.1142 23.3364 17.2366 22.854 17.2366H21.0396V19.807H19.5492ZM21.0396 15.9298H22.7676C22.9476 15.9298 23.1096 15.8794 23.2536 15.7786C23.3976 15.6778 23.5128 15.5338 23.5992 15.3466C23.6856 15.1522 23.7288 14.9326 23.7288 14.6878C23.7288 14.4214 23.6784 14.1946 23.5776 14.0074C23.484 13.8202 23.358 13.6798 23.1996 13.5862C23.0484 13.4926 22.8828 13.4458 22.7028 13.4458H21.0396V15.9298Z" fill="#4D5EFF"/>
<path d="M16.459 19.807V12.139H17.9494V19.807H16.459Z" fill="#4D5EFF"/>
</svg>
