<svg version="1.1" xmlns="http://www.w3.org/2000/svg" xmlns:xlink="http://www.w3.org/1999/xlink">
  <symbol  xmlns="http://www.w3.org/2000/svg" viewBox="0 0 24 25" width="24" height="24" id="menu_uslugi">
    <path d="M5.66166 9.57709L11.3181 0.5L16.9745 9.57709H5.66166ZM18.9303 24.5C17.5037 24.5 16.3049 24.0202 15.3343 23.0606C14.3637 22.101 13.8784 20.9202 13.8784 19.5182C13.8784 18.1162 14.3637 16.9383 15.3343 15.9844C16.3049 15.0306 17.5037 14.5537 18.9303 14.5537C20.3571 14.5537 21.5587 15.0306 22.5352 15.9844C23.5117 16.9383 24 18.1162 24 19.5182C24 20.9202 23.5117 22.101 22.5352 23.0606C21.5587 24.0202 20.3571 24.5 18.9303 24.5ZM0 23.7641V15.2065H8.70834V23.7641H0ZM18.9404 23.3572C20.0227 23.3572 20.9427 22.9845 21.7004 22.2391C22.4581 21.4938 22.837 20.5864 22.837 19.517C22.837 18.4477 22.4577 17.5436 21.6993 16.8048C20.9407 16.066 20.0174 15.6966 18.9292 15.6966C17.841 15.6966 16.921 16.0669 16.1691 16.8077C15.4173 17.5484 15.0414 18.4552 15.0414 19.528C15.0414 20.5916 15.4183 21.4957 16.1721 22.2403C16.9259 22.9849 17.8486 23.3572 18.9404 23.3572ZM1.16299 22.6212H7.54537V16.3493H1.16299V22.6212ZM7.70045 8.43421H14.9533L11.3181 2.73377L7.70045 8.43421Z" fill="inherit"></path>
  </symbol>

  <symbol  xmlns="http://www.w3.org/2000/svg" viewBox="0 0 24 24" id="search_icon">
    <path d="M18.5247 18.56L22.6313 22.6666M21.334 11.3333C21.334 13.9855 20.2804 16.529 18.4051 18.4044C16.5297 20.2797 13.9861 21.3333 11.334 21.3333C8.68182 21.3333 6.13828 20.2797 4.26292 18.4044C2.38755 16.529 1.33398 13.9855 1.33398 11.3333C1.33398 8.68115 2.38755 6.13761 4.26292 4.26225C6.13828 2.38688 8.68182 1.33331 11.334 1.33331C13.9861 1.33331 16.5297 2.38688 18.4051 4.26225C20.2804 6.13761 21.334 8.68115 21.334 11.3333Z" stroke="#4D5EFF" stroke-width="1.5" stroke-linecap="round" stroke-linejoin="round"/>
  </symbol>

  <symbol xmlns="http://www.w3.org/2000/svg" viewBox="0 0 24 21" id="telegram" width="24" height="21">
    <path fill-rule="evenodd" clip-rule="evenodd" d="M21.0734 0.168293C21.3617 0.0469487 21.6773 0.00509802 21.9872 0.047096C22.2972 0.089094 22.5903 0.213406 22.8359 0.407092C23.0815 0.600778 23.2707 0.856758 23.3838 1.14839C23.497 1.44002 23.5298 1.75664 23.4791 2.06529L20.8331 18.1151C20.5764 19.6633 18.8777 20.5511 17.4579 19.78C16.2702 19.1348 14.5062 18.1408 12.9196 17.1036C12.1262 16.5845 9.69608 14.922 9.99475 13.739C10.2514 12.7275 14.3347 8.92646 16.6681 6.66663C17.5839 5.77879 17.1662 5.26663 16.0847 6.08329C13.3991 8.11096 9.08708 11.1945 7.66141 12.0625C6.40375 12.8278 5.74808 12.9585 4.96408 12.8278C3.53375 12.5898 2.20725 12.2211 1.12458 11.772C-0.33842 11.1653 -0.267253 9.15396 1.12341 8.56829L21.0734 0.168293Z" fill="#1C74F8"></path>
  </symbol>

  <symbol xmlns="http://www.w3.org/2000/svg" viewBox="0 0 26 22" id="rutube">
    <path d="M13.6981 13.3027H4.07928V9.57596H13.6981C14.2599 9.57596 14.6506 9.67184 14.8467 9.83929C15.0427 10.0067 15.1642 10.3173 15.1642 10.771V12.1091C15.1642 12.5871 15.0427 12.8977 14.8467 13.0651C14.6506 13.2326 14.2599 13.3041 13.6981 13.3041V13.3027ZM14.358 6.06247H0V21.9998H4.07928V16.8147H11.597L15.1642 21.9998H19.7321L15.7992 16.7904C17.2492 16.58 17.9003 16.145 18.4373 15.4279C18.9742 14.7109 19.2435 13.5646 19.2435 12.0347V10.8397C19.2435 9.93232 19.1454 9.2153 18.9742 8.66575C18.803 8.11617 18.5104 7.63817 18.0949 7.20883C17.6559 6.80237 17.1672 6.51614 16.5805 6.32436C15.9938 6.15691 15.2607 6.06104 14.358 6.06104V6.06247Z" fill="#100943"></path>
    <path d="M22.8664 6.06122C24.5972 6.06122 26.0003 4.70436 26.0003 3.03061C26.0003 1.35685 24.5972 0 22.8664 0C21.1355 0 19.7324 1.35685 19.7324 3.03061C19.7324 4.70436 21.1355 6.06122 22.8664 6.06122Z" fill="#ED143B"></path>
  </symbol>
  <symbol  xmlns="http://www.w3.org/2000/svg" viewBox="0 0 22 22" id="vk">
    <path d="M1.97 1.97C0.5 3.454 0.5 5.827 0.5 10.58V11.42C0.5 16.166 0.5 18.539 1.97 20.03C3.454 21.5 5.827 21.5 10.58 21.5H11.42C16.166 21.5 18.539 21.5 20.03 20.03C21.5 18.546 21.5 16.173 21.5 11.42V10.58C21.5 5.834 21.5 3.461 20.03 1.97C18.546 0.5 16.173 0.5 11.42 0.5H10.58C5.834 0.5 3.461 0.5 1.97 1.97ZM4.042 6.891H6.45C6.527 10.895 8.291 12.589 9.691 12.939V6.891H11.952V10.342C13.331 10.195 14.787 8.62 15.277 6.884H17.531C17.3471 7.78259 16.9799 8.63361 16.4524 9.38395C15.9249 10.1343 15.2483 10.7678 14.465 11.245C15.3393 11.68 16.1115 12.2955 16.7305 13.0509C17.3495 13.8062 17.8013 14.6842 18.056 15.627H15.571C15.039 13.968 13.709 12.68 11.952 12.505V15.627H11.672C6.884 15.627 4.154 12.351 4.042 6.891Z" fill="#1C74F8"></path>
  </symbol>
  <symbol  xmlns="http://www.w3.org/2000/svg" viewBox="0 0 26 18" id="youtube">
    <path d="M10.4 12.8571L17.147 9L10.4 5.14286V12.8571ZM25.428 2.79C25.597 3.39429 25.714 4.20429 25.792 5.23286C25.883 6.26143 25.922 7.14857 25.922 7.92L26 9C26 11.8157 25.792 13.8857 25.428 15.21C25.103 16.3671 24.349 17.1129 23.179 17.4343C22.568 17.6014 21.45 17.7171 19.734 17.7943C18.044 17.8843 16.497 17.9229 15.067 17.9229L13 18C7.553 18 4.16 17.7943 2.821 17.4343C1.651 17.1129 0.897 16.3671 0.572 15.21C0.403 14.6057 0.286 13.7957 0.208 12.7671C0.117 11.7386 0.0779999 10.8514 0.0779999 10.08L0 9C0 6.18429 0.208 4.11429 0.572 2.79C0.897 1.63286 1.651 0.887143 2.821 0.565714C3.432 0.398571 4.55 0.282857 6.266 0.205714C7.956 0.115714 9.503 0.0771428 10.933 0.0771428L13 0C18.447 0 21.84 0.205714 23.179 0.565714C24.349 0.887143 25.103 1.63286 25.428 2.79Z" fill="#FF0303"></path>
  </symbol>
  <symbol  xmlns="http://www.w3.org/2000/svg" viewBox="0 0 22 22" id="menu_white_phone">
    <path d="M14.6676 15.6353L16.562 13.7401C16.8172 13.488 17.14 13.3154 17.4913 13.2433C17.8426 13.1712 18.2072 13.2027 18.541 13.334L20.8498 14.2562C21.1871 14.3931 21.4763 14.6269 21.681 14.928C21.8857 15.2292 21.9967 15.5842 22 15.9483V20.1786C21.998 20.4263 21.946 20.6711 21.847 20.8981C21.748 21.1252 21.6041 21.3298 21.4239 21.4998C21.2438 21.6697 21.0311 21.8015 20.7987 21.887C20.5663 21.9726 20.3191 22.0102 20.0718 21.9976C3.89312 20.9908 0.628639 7.28462 0.0112629 2.03904C-0.0173962 1.78145 0.00878882 1.5207 0.0880951 1.27396C0.167401 1.02721 0.298031 0.800064 0.471392 0.607453C0.644752 0.414841 0.856914 0.261133 1.09392 0.156441C1.33092 0.0517482 1.5874 -0.00155604 1.84648 3.45777e-05H5.93131C6.29582 0.00111397 6.65168 0.111264 6.9531 0.316317C7.25453 0.52137 7.48774 0.811949 7.62275 1.15068L8.54458 3.46043C8.68011 3.79299 8.71469 4.15812 8.644 4.51023C8.5733 4.86233 8.40047 5.1858 8.14709 5.44021L6.25268 7.33539C6.25268 7.33539 7.34366 14.7215 14.6676 15.6353Z" fill="inherit"></path>
  </symbol>
  <symbol  xmlns="http://www.w3.org/2000/svg" viewBox="0 0 16 18" id="menu_account">
    <circle cx="8" cy="4.5" r="3.5" stroke="#4D5EFF"/>
    <path d="M15.5 14.8286C15.5 15.3765 15.259 15.7677 14.8179 16.0771C14.3531 16.4032 13.6739 16.6279 12.8596 16.772C11.4763 17.0169 9.86956 17.0052 8.62497 16.9961C8.40416 16.9945 8.19474 16.9929 8 16.9929C7.80526 16.9929 7.59584 16.9945 7.37503 16.9961C6.13044 17.0052 4.52369 17.0169 3.14039 16.772C2.32613 16.6279 1.64694 16.4032 1.18209 16.0771C0.741014 15.7677 0.5 15.3765 0.5 14.8286C0.5 14.2538 0.767408 13.6648 1.27273 13.082C1.77723 12.5002 2.49036 11.9591 3.30164 11.4946C4.93693 10.5585 6.85095 10 8 10C9.14905 10 11.0631 10.5585 12.6984 11.4946C13.5096 11.9591 14.2228 12.5002 14.7273 13.082C15.2326 13.6648 15.5 14.2538 15.5 14.8286Z" stroke="#4D5EFF"/>
  </symbol>
  <symbol  xmlns="http://www.w3.org/2000/svg" viewBox="0 0 26 24" id="menu_burger">
    <rect width="26" height="3" rx="1.5" transform="matrix(1 0 0 -1 0 21.5)" fill="inherit"></rect>
    <rect width="26" height="3" rx="1.5" transform="matrix(1 0 0 -1 0 13.5)" fill="inherit"></rect>
    <rect width="26" height="3" rx="1.5" transform="matrix(1 0 0 -1 0 5.5)" fill="inherit"></rect>
  </symbol>
  <symbol  xmlns="http://www.w3.org/2000/svg" viewBox="0 0 80 62" id="arrow">
    <path fill-rule="evenodd" clip-rule="evenodd" d="M51.9711 1.23299L78.7668 28.0233C80.4111 29.6673 80.4111 32.3327 78.7668 33.9767L51.9711 60.767C50.3268 62.411 47.6609 62.411 46.0166 60.767C44.3722 59.123 44.3722 56.4576 46.0166 54.8136L65.6244 35.2097H4.21053C1.88512 35.2097 0 33.325 0 31C0 28.6751 1.88512 26.7903 4.21053 26.7903H65.6244L46.0166 7.18639C44.3722 5.54241 44.3722 2.87698 46.0166 1.23299C47.6609 -0.410997 50.3268 -0.410997 51.9711 1.23299Z" fill="#4D5EFF"/>
  </symbol>
  <symbol  xmlns="http://www.w3.org/2000/svg" viewBox="0 0 128 128" id="block1_sip">
    <path d="M67.5556 35.5648C66.6074 35.5648 65.7778 35.2093 65.0667 34.4982C64.3556 33.7871 64 32.9574 64 32.0093C64 31.0611 64.3556 30.2315 65.0667 29.5204C65.7778 28.8093 66.6074 28.4537 67.5556 28.4537H78.2222V21.3426H67.5556C66.6074 21.3426 65.7778 20.9871 65.0667 20.2759C64.3556 19.5648 64 18.7352 64 17.7871V3.56483C64 2.61668 64.3556 1.78706 65.0667 1.07594C65.7778 0.364833 66.6074 0.00927734 67.5556 0.00927734H81.7778C82.7259 0.00927734 83.5556 0.364833 84.2667 1.07594C84.9778 1.78706 85.3333 2.61668 85.3333 3.56483C85.3333 4.51298 84.9778 5.34261 84.2667 6.05372C83.5556 6.76483 82.7259 7.12039 81.7778 7.12039H71.1111V14.2315H81.7778C82.7259 14.2315 83.5556 14.5871 84.2667 15.2982C84.9778 16.0093 85.3333 16.8389 85.3333 17.7871V32.0093C85.3333 32.9574 84.9778 33.7871 84.2667 34.4982C83.5556 35.2093 82.7259 35.5648 81.7778 35.5648H67.5556ZM96 35.5648C95.0519 35.5648 94.2222 35.2093 93.5111 34.4982C92.8 33.7871 92.4445 32.9574 92.4445 32.0093V3.56483C92.4445 2.61668 92.8 1.78706 93.5111 1.07594C94.2222 0.364833 95.0519 0.00927734 96 0.00927734C96.9482 0.00927734 97.7778 0.364833 98.4889 1.07594C99.2 1.78706 99.5556 2.61668 99.5556 3.56483V32.0093C99.5556 32.9574 99.2 33.7871 98.4889 34.4982C97.7778 35.2093 96.9482 35.5648 96 35.5648ZM110.222 35.5648C109.274 35.5648 108.444 35.2093 107.733 34.4982C107.022 33.7871 106.667 32.9574 106.667 32.0093V3.56483C106.667 2.61668 107.022 1.78706 107.733 1.07594C108.444 0.364833 109.274 0.00927734 110.222 0.00927734H124.444C125.393 0.00927734 126.222 0.364833 126.933 1.07594C127.644 1.78706 128 2.61668 128 3.56483V17.7871C128 18.7352 127.644 19.5648 126.933 20.2759C126.222 20.9871 125.393 21.3426 124.444 21.3426H113.778V32.0093C113.778 32.9574 113.422 33.7871 112.711 34.4982C112 35.2093 111.17 35.5648 110.222 35.5648ZM113.778 14.2315H120.889V7.12039H113.778V14.2315ZM120.533 128.009C105.719 128.009 91.0815 124.78 76.6222 118.32C62.163 111.861 49.0074 102.706 37.1556 90.8537C25.3037 79.0019 16.1481 65.8463 9.68889 51.3871C3.22963 36.9278 0 22.2908 0 7.47594C0 5.34261 0.711111 3.56483 2.13333 2.14261C3.55556 0.720388 5.33333 0.00927734 7.46667 0.00927734H36.2667C37.9259 0.00927734 39.4074 0.57224 40.7111 1.69817C42.0148 2.82409 42.7852 4.15743 43.0222 5.69817L47.6444 30.5871C47.8815 32.4834 47.8222 34.0834 47.4667 35.3871C47.1111 36.6908 46.4593 37.8167 45.5111 38.7648L28.2667 56.1871C30.637 60.5722 33.4519 64.8093 36.7111 68.8982C39.9704 72.9871 43.5556 76.9278 47.4667 80.7204C51.1407 84.3945 54.9926 87.8019 59.0222 90.9426C63.0519 94.0834 67.3185 96.9574 71.8222 99.5648L88.5333 82.8537C89.6 81.7871 90.9926 80.9871 92.7111 80.4537C94.4296 79.9204 96.1185 79.7722 97.7778 80.0093L122.311 84.9871C123.97 85.4611 125.333 86.3204 126.4 87.5648C127.467 88.8093 128 90.2019 128 91.7426V120.543C128 122.676 127.289 124.454 125.867 125.876C124.444 127.298 122.667 128.009 120.533 128.009ZM21.5111 42.6759L33.2444 30.9426L30.2222 14.2315H14.4C14.9926 19.0908 15.8222 23.8908 16.8889 28.6315C17.9556 33.3722 19.4963 38.0537 21.5111 42.6759ZM85.1556 106.32C89.7778 108.335 94.4889 109.935 99.2889 111.12C104.089 112.306 108.919 113.076 113.778 113.432V97.7871L97.0667 94.4093L85.1556 106.32Z" fill="inherit"></path>
  </symbol>
  <symbol  xmlns="http://www.w3.org/2000/svg" viewBox="0 0 128 128" id="block1_touch">
    <path d="M63.8965 38.3647C56.8678 38.3647 50.8509 40.8673 45.8457 45.8726C40.8405 50.8778 38.3379 56.8947 38.3379 63.9233C38.3379 68.7155 39.5359 73.1351 41.9321 77.1818C44.3282 81.2286 47.6561 84.3702 51.9159 86.6066C53.6198 87.4585 54.8178 88.7098 55.51 90.3605C56.2023 92.0111 56.1756 93.6884 55.4302 95.3923C54.6847 96.8832 53.5665 98.0014 52.0756 98.7469C50.5847 99.4923 49.0938 99.4923 47.6029 98.7469C40.8937 95.5521 35.5424 90.8131 31.5489 84.5299C27.5553 78.2468 25.5586 71.3779 25.5586 63.9233C25.5586 53.2739 29.2859 44.2219 36.7405 36.7673C44.1951 29.3127 53.2471 25.5854 63.8965 25.5854C71.4575 25.5854 78.4063 27.5822 84.7427 31.5757C91.0791 35.5693 95.7914 41.0271 98.8798 47.9492C99.5187 49.4401 99.4921 50.931 98.7999 52.422C98.1077 53.9129 97.0161 54.9778 95.5252 55.6168C93.8213 56.3622 92.1174 56.3622 90.4135 55.6168C88.7096 54.8713 87.4317 53.6466 86.5797 51.9427C84.3433 47.683 81.2018 44.355 77.155 41.9589C73.1082 39.5628 68.6887 38.3647 63.8965 38.3647ZM63.8965 12.8061C49.6263 12.8061 37.5392 17.7581 27.6352 27.6621C17.7313 37.566 12.7793 49.6531 12.7793 63.9233C12.7793 77.3416 17.1988 88.8429 26.0378 98.4274C34.8768 108.012 45.9522 113.443 59.264 114.721C61.0744 114.934 62.6452 115.733 63.9763 117.117C65.3075 118.502 65.9198 120.099 65.8134 121.909C65.7069 123.72 65.0413 125.211 63.8166 126.382C62.5919 127.554 61.0744 128.086 59.264 127.98C50.9574 127.447 43.21 125.37 36.0216 121.75C28.8333 118.129 22.5501 113.416 17.1722 107.613C11.7942 101.809 7.5877 95.1527 4.55262 87.6449C1.51754 80.137 0 72.2299 0 63.9233C0 55.0843 1.67728 46.7778 5.03185 39.0037C8.38641 31.2296 12.939 24.4673 18.6897 18.7166C24.4404 12.9659 31.2028 8.41327 38.9768 5.0587C46.7509 1.70414 55.0574 0.0268555 63.8965 0.0268555C80.616 0.0268555 95.1791 5.72429 107.586 17.1192C119.992 28.514 126.781 42.5712 127.953 59.2908C128.166 60.9947 127.66 62.459 126.435 63.6837C125.21 64.9084 123.693 65.574 121.882 65.6805C120.072 65.787 118.448 65.2012 117.01 63.9233C115.573 62.6454 114.747 61.1012 114.534 59.2908C112.937 46.5115 107.373 35.5693 97.8415 26.464C88.3102 17.3588 76.9952 12.8061 63.8965 12.8061ZM112.138 124.625L91.0525 103.699L86.2602 118.235C85.7278 119.726 84.7161 120.445 83.2251 120.392C81.7342 120.339 80.7225 119.566 80.1901 118.076L65.6536 69.674C65.2276 68.5026 65.4939 67.4376 66.4523 66.4792C67.4108 65.5207 68.4757 65.2545 69.6471 65.6805L118.049 80.2169C119.54 80.7494 120.312 81.7611 120.365 83.252C120.418 84.7429 119.699 85.7546 118.208 86.2871L103.672 91.0793L124.758 112.165C126.568 113.976 127.473 116.052 127.473 118.395C127.473 120.738 126.568 122.815 124.758 124.625C122.947 126.435 120.844 127.341 118.448 127.341C116.052 127.341 113.949 126.435 112.138 124.625Z" fill="inherit"></path>
  </symbol>
  <symbol  xmlns="http://www.w3.org/2000/svg" viewBox="0 0 20 21" id="calendar">
    <path fill-rule="evenodd" clip-rule="evenodd" d="M4 2.5H16C17.0609 2.5 18.0783 2.92143 18.8284 3.67157C19.5786 4.42172 20 5.43913 20 6.5V16.5C20 17.5609 19.5786 18.5783 18.8284 19.3284C18.0783 20.0786 17.0609 20.5 16 20.5H4C2.93913 20.5 1.92172 20.0786 1.17157 19.3284C0.421427 18.5783 0 17.5609 0 16.5V6.5C0 5.43913 0.421427 4.42172 1.17157 3.67157C1.92172 2.92143 2.93913 2.5 4 2.5ZM4 4.5C3.46957 4.5 2.96086 4.71071 2.58579 5.08579C2.21071 5.46086 2 5.96957 2 6.5V16.5C2 17.0304 2.21071 17.5391 2.58579 17.9142C2.96086 18.2893 3.46957 18.5 4 18.5H16C16.5304 18.5 17.0391 18.2893 17.4142 17.9142C17.7893 17.5391 18 17.0304 18 16.5V6.5C18 5.96957 17.7893 5.46086 17.4142 5.08579C17.0391 4.71071 16.5304 4.5 16 4.5H4Z"></path>
    <path fill-rule="evenodd" clip-rule="evenodd" d="M1 8.5C1 8.23478 1.10536 7.98043 1.29289 7.79289C1.48043 7.60536 1.73478 7.5 2 7.5H18C18.2652 7.5 18.5196 7.60536 18.7071 7.79289C18.8946 7.98043 19 8.23478 19 8.5C19 8.76522 18.8946 9.01957 18.7071 9.20711C18.5196 9.39464 18.2652 9.5 18 9.5H2C1.73478 9.5 1.48043 9.39464 1.29289 9.20711C1.10536 9.01957 1 8.76522 1 8.5ZM6 0.5C6.26522 0.5 6.51957 0.605357 6.70711 0.792893C6.89464 0.98043 7 1.23478 7 1.5V5.5C7 5.76522 6.89464 6.01957 6.70711 6.20711C6.51957 6.39464 6.26522 6.5 6 6.5C5.73478 6.5 5.48043 6.39464 5.29289 6.20711C5.10536 6.01957 5 5.76522 5 5.5V1.5C5 1.23478 5.10536 0.98043 5.29289 0.792893C5.48043 0.605357 5.73478 0.5 6 0.5ZM14 0.5C14.2652 0.5 14.5196 0.605357 14.7071 0.792893C14.8946 0.98043 15 1.23478 15 1.5V5.5C15 5.76522 14.8946 6.01957 14.7071 6.20711C14.5196 6.39464 14.2652 6.5 14 6.5C13.7348 6.5 13.4804 6.39464 13.2929 6.20711C13.1054 6.01957 13 5.76522 13 5.5V1.5C13 1.23478 13.1054 0.98043 13.2929 0.792893C13.4804 0.605357 13.7348 0.5 14 0.5Z"></path>
    <path d="M6 11.5C6 11.7652 5.89464 12.0196 5.70711 12.2071C5.51957 12.3946 5.26522 12.5 5 12.5C4.73478 12.5 4.48043 12.3946 4.29289 12.2071C4.10536 12.0196 4 11.7652 4 11.5C4 11.2348 4.10536 10.9804 4.29289 10.7929C4.48043 10.6054 4.73478 10.5 5 10.5C5.26522 10.5 5.51957 10.6054 5.70711 10.7929C5.89464 10.9804 6 11.2348 6 11.5ZM6 15.5C6 15.7652 5.89464 16.0196 5.70711 16.2071C5.51957 16.3946 5.26522 16.5 5 16.5C4.73478 16.5 4.48043 16.3946 4.29289 16.2071C4.10536 16.0196 4 15.7652 4 15.5C4 15.2348 4.10536 14.9804 4.29289 14.7929C4.48043 14.6054 4.73478 14.5 5 14.5C5.26522 14.5 5.51957 14.6054 5.70711 14.7929C5.89464 14.9804 6 15.2348 6 15.5ZM11 11.5C11 11.7652 10.8946 12.0196 10.7071 12.2071C10.5196 12.3946 10.2652 12.5 10 12.5C9.73478 12.5 9.48043 12.3946 9.29289 12.2071C9.10536 12.0196 9 11.7652 9 11.5C9 11.2348 9.10536 10.9804 9.29289 10.7929C9.48043 10.6054 9.73478 10.5 10 10.5C10.2652 10.5 10.5196 10.6054 10.7071 10.7929C10.8946 10.9804 11 11.2348 11 11.5ZM11 15.5C11 15.7652 10.8946 16.0196 10.7071 16.2071C10.5196 16.3946 10.2652 16.5 10 16.5C9.73478 16.5 9.48043 16.3946 9.29289 16.2071C9.10536 16.0196 9 15.7652 9 15.5C9 15.2348 9.10536 14.9804 9.29289 14.7929C9.48043 14.6054 9.73478 14.5 10 14.5C10.2652 14.5 10.5196 14.6054 10.7071 14.7929C10.8946 14.9804 11 15.2348 11 15.5ZM16 11.5C16 11.7652 15.8946 12.0196 15.7071 12.2071C15.5196 12.3946 15.2652 12.5 15 12.5C14.7348 12.5 14.4804 12.3946 14.2929 12.2071C14.1054 12.0196 14 11.7652 14 11.5C14 11.2348 14.1054 10.9804 14.2929 10.7929C14.4804 10.6054 14.7348 10.5 15 10.5C15.2652 10.5 15.5196 10.6054 15.7071 10.7929C15.8946 10.9804 16 11.2348 16 11.5ZM16 15.5C16 15.7652 15.8946 16.0196 15.7071 16.2071C15.5196 16.3946 15.2652 16.5 15 16.5C14.7348 16.5 14.4804 16.3946 14.2929 16.2071C14.1054 16.0196 14 15.7652 14 15.5C14 15.2348 14.1054 14.9804 14.2929 14.7929C14.4804 14.6054 14.7348 14.5 15 14.5C15.2652 14.5 15.5196 14.6054 15.7071 14.7929C15.8946 14.9804 16 15.2348 16 15.5Z"></path>
  </symbol>
  <symbol xmlns="http://www.w3.org/2000/svg" viewBox="0 0 20 21" id="clock">
    <path d="M10 0.5C15.523 0.5 20 4.977 20 10.5C20 16.023 15.523 20.5 10 20.5C4.477 20.5 0 16.023 0 10.5C0 4.977 4.477 0.5 10 0.5ZM10 2.5C7.87827 2.5 5.84344 3.34285 4.34315 4.84315C2.84285 6.34344 2 8.37827 2 10.5C2 12.6217 2.84285 14.6566 4.34315 16.1569C5.84344 17.6571 7.87827 18.5 10 18.5C12.1217 18.5 14.1566 17.6571 15.6569 16.1569C17.1571 14.6566 18 12.6217 18 10.5C18 8.37827 17.1571 6.34344 15.6569 4.84315C14.1566 3.34285 12.1217 2.5 10 2.5ZM10 4.5C10.2449 4.50003 10.4813 4.58996 10.6644 4.75272C10.8474 4.91547 10.9643 5.13975 10.993 5.383L11 5.5V10.086L13.707 12.793C13.8863 12.973 13.9905 13.2144 13.9982 13.4684C14.006 13.7223 13.9168 13.9697 13.7488 14.1603C13.5807 14.3508 13.3464 14.4703 13.0935 14.4944C12.8406 14.5185 12.588 14.4454 12.387 14.29L12.293 14.207L9.293 11.207C9.13758 11.0514 9.03776 10.849 9.009 10.631L9 10.5V5.5C9 5.23478 9.10536 4.98043 9.29289 4.79289C9.48043 4.60536 9.73478 4.5 10 4.5Z"></path>
  </symbol>
  <symbol  xmlns="http://www.w3.org/2000/svg" viewBox="0 0 22 15" id="eye">
    <path d="M11 4.5C11.7956 4.5 12.5587 4.81607 13.1213 5.37868C13.6839 5.94129 14 6.70435 14 7.5C14 8.29565 13.6839 9.05871 13.1213 9.62132C12.5587 10.1839 11.7956 10.5 11 10.5C10.2044 10.5 9.44129 10.1839 8.87868 9.62132C8.31607 9.05871 8 8.29565 8 7.5C8 6.70435 8.31607 5.94129 8.87868 5.37868C9.44129 4.81607 10.2044 4.5 11 4.5ZM11 0C16 0 20.27 3.11 22 7.5C20.27 11.89 16 15 11 15C6 15 1.73 11.89 0 7.5C1.73 3.11 6 0 11 0ZM2.18 7.5C2.98825 9.15031 4.24331 10.5407 5.80248 11.5133C7.36165 12.4858 9.1624 13.0013 11 13.0013C12.8376 13.0013 14.6383 12.4858 16.1975 11.5133C17.7567 10.5407 19.0117 9.15031 19.82 7.5C19.0117 5.84969 17.7567 4.45925 16.1975 3.48675C14.6383 2.51424 12.8376 1.99868 11 1.99868C9.1624 1.99868 7.36165 2.51424 5.80248 3.48675C4.24331 4.45925 2.98825 5.84969 2.18 7.5Z"></path>
  </symbol>
  <symbol  xmlns="http://www.w3.org/2000/svg" viewBox="0 0 199 56" id="logo">
    <path d="M32.1175 0.713039C25.9838 1.8972 20.76 5.11924 17.0061 9.5405C23.1352 8.31722 38.0614 9.44514 45.4138 24.8882C47.04 20.504 47.7007 14.2674 45.5933 7.94355C41.9627 4.22235 37.3857 1.74236 32.4981 0.644991C32.3711 0.666181 32.2453 0.68859 32.1175 0.713039Z" fill="inherit"></path>
    <path d="M0.983003 19.8887C-0.35013 24.8161 -0.355418 29.8042 1.13973 34.5086C1.22236 34.6064 1.30458 34.7042 1.38925 34.8024C5.50506 39.5077 10.9202 42.3984 16.6264 43.4102C7.26439 32.1036 10.5926 17.3757 15.7692 11.1289C11.1653 11.9333 5.68581 14.5547 0.983003 19.8887Z" fill="inherit"></path>
    <path d="M12.5795 4.11253C18.7396 0.201845 25.902 -0.837457 32.4981 0.644991C32.3715 0.666181 32.2465 0.688182 32.1175 0.713039C25.9867 1.8972 20.7623 5.11699 17.01 9.53662C16.7552 9.5786 16.5008 9.62179 16.2455 9.6715C10.4538 10.7897 5.47099 13.7244 1.77363 17.7712C3.65996 12.3186 7.33249 7.44335 12.5795 4.11253Z" fill="inherit"></path>
    <path d="M14.1777 49.977C7.69682 46.6222 3.18777 40.9581 1.13862 34.5079C1.22084 34.6053 1.30498 34.7046 1.38925 34.8024C5.50425 39.5069 10.9167 42.3957 16.6209 43.4087C16.7849 43.6096 16.953 43.8064 17.124 44.0024C21.0094 48.4433 26.0542 51.2708 31.4103 52.4252C25.7558 53.5463 19.6966 52.8283 14.1777 49.977Z" fill="inherit"></path>
    <path d="M47.3917 12.2846C50.1532 26.6193 40.7838 40.4789 26.4654 43.2421C23.572 43.8015 21.7829 43.817 18.6078 43.6337C22.3927 48.0557 27.4541 50.9791 32.8131 51.9762C38.1742 52.9729 40.9056 52.6991 44.3139 54.7162C44.633 54.9073 44.9562 55.109 44.8866 54.4374C44.4254 49.9872 46.1933 45.4034 48.089 42.0876C53.8628 32.7337 54.88 21.5375 49.0167 12.2802C48.2624 11.0899 47.4271 9.97867 46.5251 8.95301C46.8808 10.03 47.1715 11.1408 47.3917 12.2846Z" fill="inherit"></path>
    <path d="M112.791 31.5191C112.821 25.3191 115.024 23.9528 118.734 23.9442C122.264 23.952 124.43 25.1903 124.656 30.6552L112.791 31.5191ZM118.763 21.7434V21.7422H118.703V21.7434C112.746 21.7625 109.88 24.6688 109.88 31.6393C109.88 36.1302 110.928 41.7475 118.763 41.7475C122.209 41.7475 124.046 41.4182 124.046 41.4182L123.596 39.3327C122.531 39.4064 120.399 39.494 118.763 39.494C115.412 39.494 113.306 38.4211 112.875 33.6356L127.576 32.4359L127.573 32.409C127.573 32.4074 127.576 32.4062 127.576 32.4025C127.584 32.1454 127.587 31.8899 127.588 31.6393C127.588 24.6688 124.722 21.7625 118.763 21.7434ZM145.589 22.6904C145.391 22.2968 144.983 22.047 144.534 22.047H130.114L130.657 24.3525H141.78L129.755 39.6542C129.48 40.003 129.434 40.4728 129.631 40.8669C129.829 41.2621 130.239 41.5111 130.688 41.5111H145.468L144.925 39.2047H133.439L145.465 23.9031C145.739 23.5551 145.787 23.0844 145.589 22.6904ZM187.216 41.4659V27.6169C187.189 25.496 186.375 21.5592 180.549 21.5592C176.125 21.5592 172.877 22.6879 171.23 23.2662C170.987 23.3517 170.777 23.4251 170.637 23.4683L170.643 23.4842V41.4659H173.358V24.9336C174.812 24.4491 176.823 23.9239 179.835 23.9239C181.303 23.9239 183.38 24.5062 183.973 25.5942C184.449 26.4674 184.498 28.0953 184.502 28.1829V41.4659H187.216ZM156.736 39.494C152.995 39.4904 150.781 38.1253 150.781 31.6393C150.781 25.3281 152.995 23.9495 156.736 23.9442C160.478 23.9495 162.69 25.3281 162.69 31.6393C162.69 38.1253 160.478 39.4904 156.736 39.494ZM156.755 21.7426L156.736 21.7422H156.718C150.744 21.7544 147.871 24.6598 147.871 31.6393C147.871 36.1241 148.87 41.7295 156.718 41.7462V41.7475H156.755V41.7462C164.602 41.7295 165.602 36.1241 165.602 31.6393C165.602 24.6598 162.729 21.7548 156.755 21.7426ZM83.832 31.5191C83.8605 25.3191 86.0635 23.9528 89.7735 23.9442C93.3043 23.952 95.4695 25.1903 95.695 30.6552L83.832 31.5191ZM89.804 21.7434V21.7422H89.7434V21.7434C83.7856 21.7625 80.9194 24.6688 80.9194 31.6393C80.9194 36.1302 81.968 41.7475 89.804 41.7475C93.2486 41.7475 95.0857 41.4182 95.0857 41.4182L94.6354 39.3327C93.5714 39.4064 91.44 39.494 89.804 39.494C86.4527 39.494 84.3453 38.4211 83.9146 33.6356L98.6157 32.4359L98.6116 32.409C98.6116 32.4074 98.6157 32.4062 98.6157 32.4025C98.6235 32.1454 98.6271 31.8899 98.6271 31.6393C98.6271 24.6688 95.761 21.7625 89.804 21.7434ZM73.1592 37.4024V24.1749H77.7745V22.047H73.1592V16.7704L70.4437 17.1257V22.047H67.8095L68.3526 24.1749H70.4437V37.0666C70.4437 41.3485 73.9509 41.9439 78.1893 41.5706L77.7655 39.5018C77.0177 39.5018 73.1592 39.9358 73.1592 37.4024ZM102.888 41.4659H105.603V14.4925L102.888 15.0239V41.4659Z" fill="inherit"></path>
    <path d="M195.314 28.5129C193.489 28.5129 192.003 27.026 192.003 25.198C192.003 23.3704 193.489 21.8835 195.314 21.8835C197.141 21.8835 198.627 23.3704 198.627 25.198C198.627 27.026 197.141 28.5129 195.314 28.5129ZM195.314 21.5082C193.283 21.5082 191.629 23.1638 191.629 25.198C191.629 27.2326 193.283 28.8882 195.314 28.8882C197.347 28.8882 199 27.2326 199 25.198C199 23.1638 197.347 21.5082 195.314 21.5082ZM195.393 25.044H194.31V23.405H195.496C195.654 23.405 195.789 23.4279 195.901 23.4731C196.014 23.5179 196.104 23.5782 196.174 23.6532C196.243 23.7278 196.295 23.8146 196.328 23.9132C196.36 24.0122 196.376 24.112 196.376 24.2147C196.376 24.4596 196.292 24.6585 196.126 24.8121C195.96 24.967 195.715 25.044 195.393 25.044ZM196.456 25.5831C196.376 25.4727 196.246 25.3867 196.068 25.326V25.3072C196.31 25.2212 196.507 25.0782 196.658 24.8765C196.808 24.6752 196.884 24.4466 196.884 24.1899C196.884 24.0089 196.852 23.8435 196.79 23.6911C196.728 23.5387 196.638 23.4071 196.523 23.2962C196.409 23.1842 196.27 23.0986 196.106 23.0367C195.944 22.9739 195.759 22.943 195.554 22.943H194.098C193.982 22.943 193.903 22.9686 193.859 23.0196C193.817 23.0713 193.796 23.1463 193.796 23.2449V27.3695C193.796 27.4037 193.804 27.4262 193.814 27.4372C193.828 27.4482 193.851 27.4535 193.886 27.4535H194.213C194.247 27.4535 194.271 27.4482 194.284 27.4372C194.297 27.4262 194.303 27.4037 194.303 27.3695V25.4808H195.246C195.353 25.4808 195.455 25.4906 195.548 25.5093C195.642 25.5289 195.728 25.5635 195.804 25.6124C195.882 25.6621 195.948 25.7281 196.007 25.8121C196.064 25.8956 196.114 26.0032 196.15 26.136L196.563 27.3826C196.571 27.4172 196.586 27.4372 196.607 27.4437C196.628 27.4502 196.648 27.4535 196.665 27.4535H197.017C197.056 27.4535 197.08 27.4425 197.088 27.4213C197.097 27.3997 197.097 27.3785 197.088 27.3573L196.645 25.9942C196.599 25.8321 196.536 25.6951 196.456 25.5831Z" fill="inherit"></path>
    <path d="M73.3208 53.7221C73.3452 53.6674 73.3819 53.5786 73.4303 53.4568C73.4787 53.3345 73.5325 53.2033 73.5903 53.0631C73.6481 52.9226 73.7014 52.7918 73.7506 52.6691C73.7991 52.5477 73.8357 52.4584 73.8602 52.4038C73.9151 52.2755 73.981 52.1153 74.0568 51.923C74.1333 51.7311 74.2167 51.5261 74.3079 51.3093C74.3995 51.0933 74.4927 50.8684 74.5876 50.637C74.682 50.4051 74.7703 50.1867 74.8526 49.9821C74.9344 49.778 75.0109 49.593 75.0813 49.4279C75.1509 49.2637 75.2047 49.1354 75.2413 49.0437C75.2959 48.9035 75.3541 48.8134 75.4147 48.7735C75.4758 48.7344 75.5641 48.7144 75.6805 48.7144H75.8906C76.0489 48.7144 76.154 48.7503 76.2061 48.824C76.2578 48.8974 76.2838 48.9952 76.2838 49.1174V55.013C76.2838 55.0615 76.2732 55.0941 76.2516 55.1091C76.2305 55.1246 76.1979 55.132 76.156 55.132H75.7257C75.6773 55.132 75.6439 55.1246 75.6252 55.1091C75.6073 55.0941 75.5979 55.0615 75.5979 55.013V49.9499H75.5523L75.094 51.0766C75.0268 51.2347 74.9364 51.4503 74.8237 51.7217C74.7105 51.9931 74.5929 52.2771 74.4703 52.5729C74.3486 52.8696 74.229 53.1548 74.1133 53.4295C73.9969 53.7041 73.9057 53.9176 73.8386 54.07C73.7897 54.1923 73.7397 54.2758 73.6871 54.3219C73.635 54.3671 73.5479 54.3903 73.4258 54.3903H73.1783C73.0562 54.3903 72.9679 54.3671 72.9125 54.3219C72.858 54.2758 72.8059 54.1923 72.757 54.07C72.6898 53.9115 72.5979 53.6948 72.4822 53.4201C72.3658 53.1455 72.2453 52.8582 72.12 52.5595C71.995 52.2604 71.8745 51.9735 71.7581 51.6989C71.6425 51.4242 71.5472 51.2074 71.4744 51.0485L71.0526 50.0233H70.9977V55.013C70.9977 55.0615 70.9883 55.0941 70.9704 55.1091C70.9525 55.1246 70.9195 55.132 70.8715 55.132H70.4567C70.4079 55.132 70.3749 55.1246 70.357 55.1091C70.3391 55.0941 70.3301 55.0615 70.3301 55.013V49.1174C70.3301 48.9952 70.3545 48.8974 70.403 48.824C70.4514 48.7503 70.5556 48.7144 70.714 48.7144H70.9244C71.0461 48.7144 71.1365 48.7344 71.1943 48.7735C71.2521 48.8134 71.3087 48.9035 71.3636 49.0437C71.3754 49.0742 71.4153 49.1671 71.4825 49.3228C71.5497 49.4785 71.6286 49.6679 71.7202 49.8908C71.8114 50.1137 71.9103 50.3546 72.0174 50.6137C72.124 50.8737 72.2258 51.1219 72.3235 51.3598C72.4212 51.5978 72.5063 51.8089 72.5799 51.9919C72.6532 52.1752 72.7049 52.3003 72.7354 52.3667C72.7595 52.4222 72.7977 52.5138 72.8498 52.6414C72.9015 52.7698 72.9561 52.9042 73.0143 53.0444C73.0721 53.1854 73.1254 53.319 73.1747 53.4474C73.2231 53.5758 73.2597 53.6674 73.2842 53.7221H73.3208Z" fill="inherit"></path>
    <path d="M80.841 52.3582C80.841 52.1508 80.8198 51.9523 80.7771 51.7628C80.7339 51.5733 80.6618 51.4071 80.5609 51.2641C80.4604 51.1206 80.3207 51.0061 80.1437 50.921C79.9662 50.835 79.746 50.7926 79.483 50.7926C79.2689 50.7926 79.078 50.8338 78.9094 50.9157C78.7413 50.9988 78.5988 51.1096 78.4824 51.2502C78.366 51.3904 78.276 51.5554 78.2117 51.7449C78.1478 51.934 78.1092 52.1385 78.0974 52.3582H80.841ZM79.4871 50.2246C79.8351 50.2246 80.1335 50.2751 80.3838 50.3757C80.6338 50.4768 80.8397 50.6182 81.0009 50.8012C81.1625 50.9849 81.2834 51.2017 81.3624 51.4515C81.4414 51.7017 81.4813 51.9764 81.4813 52.2755C81.4813 52.5318 81.4218 52.7013 81.3026 52.7836C81.1837 52.8663 81.0388 52.9075 80.8682 52.9075H78.0701C78.0701 53.2245 78.1091 53.4947 78.1889 53.7176C78.2679 53.9405 78.3762 54.1206 78.5138 54.2575C78.6505 54.3952 78.8122 54.4942 78.9982 54.5554C79.1842 54.6165 79.3841 54.647 79.5974 54.647C79.7985 54.647 79.9601 54.6332 80.0818 54.6059C80.2039 54.5782 80.3346 54.5427 80.475 54.5003C80.5487 54.4637 80.6004 54.4763 80.6305 54.5366L80.7587 54.8479C80.7954 54.9217 80.7799 54.973 80.7127 55.0036C80.5173 55.1014 80.3334 55.1637 80.1595 55.1919C79.9861 55.2192 79.7834 55.233 79.5514 55.233C78.8805 55.233 78.355 55.0362 77.9736 54.6426C77.593 54.2481 77.4025 53.6185 77.4025 52.7518C77.4025 52.3427 77.4542 51.9813 77.5576 51.6671C77.6614 51.3525 77.8063 51.0884 77.9923 50.8749C78.1784 50.661 78.3974 50.4992 78.6506 50.3896C78.9037 50.28 79.1826 50.2246 79.4871 50.2246Z" fill="inherit"></path>
    <path d="M83.1459 54.9943C83.1459 55.0498 83.1333 55.086 83.1097 55.1048C83.0856 55.1227 83.0494 55.1321 83.0014 55.1321H82.6314C82.5833 55.1321 82.5455 55.1227 82.5186 55.1048C82.4913 55.086 82.4783 55.0498 82.4783 54.9943V50.4631C82.4783 50.4076 82.4913 50.3714 82.5186 50.3526C82.5455 50.3347 82.5833 50.3253 82.6314 50.3253H83.0014C83.0494 50.3253 83.0856 50.3347 83.1097 50.3526C83.1333 50.371 83.1459 50.4076 83.1459 50.4618V52.2572H85.6974V50.4618C85.6974 50.4076 85.7096 50.371 85.7344 50.3526C85.7592 50.3347 85.7963 50.3253 85.8459 50.3253H86.2261C86.2815 50.3253 86.3185 50.3347 86.3373 50.3526C86.356 50.3714 86.3654 50.4076 86.3654 50.4631V54.9943C86.3654 55.0498 86.356 55.086 86.3373 55.1048C86.3185 55.1227 86.2815 55.1321 86.2261 55.1321H85.8459C85.7963 55.1321 85.7592 55.1227 85.7344 55.1048C85.7096 55.086 85.6974 55.0498 85.6974 54.9943V52.8432H83.1459V54.9943Z" fill="inherit"></path>
    <path d="M89.1469 50.9115C88.9889 50.9115 88.8526 50.9347 88.737 50.9799C88.6218 51.0256 88.5273 51.0859 88.4545 51.1617C88.3816 51.2379 88.3271 51.3242 88.2904 51.4216C88.2542 51.5186 88.2363 51.6189 88.2363 51.7216C88.2363 51.9709 88.31 52.1726 88.4594 52.3271C88.6083 52.4819 88.855 52.5594 89.2018 52.5594H90.7145V50.9115H89.1469ZM91.0251 50.3255C91.1354 50.3255 91.2221 50.3548 91.2856 50.4127C91.3499 50.4706 91.3821 50.5578 91.3821 50.6735V55.0312C91.3821 55.0805 91.3715 55.109 91.3499 55.1184C91.3288 55.1278 91.2937 55.1318 91.2449 55.1318H90.8423C90.7935 55.1318 90.7601 55.1257 90.7422 55.1139C90.7234 55.1013 90.7145 55.0711 90.7145 55.0222V53.0993H89.4249C89.3032 53.0993 89.1884 53.1074 89.0822 53.1225C88.9751 53.138 88.8774 53.1685 88.7891 53.2138C88.7007 53.2598 88.623 53.3271 88.5558 53.4155C88.4887 53.5039 88.4309 53.6241 88.3824 53.7769C88.3152 53.9847 88.2509 54.1922 88.1899 54.3996C88.1292 54.607 88.0682 54.8177 88.0071 55.0312C87.9949 55.074 87.9737 55.1013 87.9432 55.1139C87.9127 55.1257 87.8854 55.1318 87.861 55.1318H87.4132C87.346 55.1318 87.3122 55.1045 87.3122 55.0499C87.3122 55.0373 87.3135 55.03 87.3167 55.0267C87.3196 55.0234 87.3216 55.0161 87.3216 55.0039L87.7421 53.6579C87.7905 53.4872 87.861 53.336 87.9526 53.2044C88.0437 53.0736 88.1964 52.9803 88.4097 52.9257C88.4036 52.9257 88.4003 52.9192 88.4003 52.9073C88.1015 52.8279 87.8882 52.6751 87.76 52.4497C87.6322 52.2236 87.5687 51.9762 87.5687 51.7081C87.5687 51.5186 87.6017 51.3406 87.6688 51.1723C87.736 51.0044 87.8349 50.8581 87.966 50.7326C88.0975 50.6075 88.2574 50.5085 88.4463 50.4351C88.6348 50.3622 88.8514 50.3255 89.096 50.3255H91.0251Z" fill="inherit"></path>
    <path d="M94.5021 54.9856C94.5021 55.0467 94.4907 55.0867 94.4691 55.1046C94.4475 55.1234 94.4125 55.1319 94.3629 55.1319H93.9827C93.9265 55.1319 93.8882 55.1234 93.8671 55.1046C93.8451 55.0867 93.8341 55.0467 93.8341 54.9856V50.9115H92.3707C92.3097 50.9115 92.2706 50.9009 92.2519 50.8789C92.2339 50.8573 92.2246 50.8247 92.2246 50.7811V50.4743C92.2246 50.4246 92.2339 50.3875 92.2519 50.3627C92.2706 50.3378 92.3097 50.3256 92.3707 50.3256H96.0473C96.1084 50.3256 96.1462 50.3378 96.1621 50.3627C96.1768 50.3875 96.1845 50.4246 96.1845 50.4743V50.7811C96.1845 50.8247 96.1768 50.8573 96.1621 50.8789C96.1462 50.9009 96.1084 50.9115 96.0473 50.9115H94.5021V54.9856Z" fill="inherit"></path>
    <path d="M97.6854 52.5319V54.5828H99.2164C99.4411 54.5828 99.6247 54.5462 99.7676 54.4732C99.9109 54.3995 100.023 54.3082 100.105 54.1986C100.187 54.0881 100.242 53.9736 100.269 53.8546C100.296 53.7357 100.31 53.6305 100.31 53.5388C100.31 53.4105 100.289 53.2854 100.246 53.1635C100.204 53.0413 100.137 52.9329 100.046 52.8384C99.9544 52.7442 99.8404 52.6688 99.7041 52.6142C99.5673 52.5592 99.4049 52.5319 99.2164 52.5319H97.6854ZM99.2176 51.9826C99.5885 51.9826 99.8876 52.0405 100.116 52.1562C100.344 52.2728 100.521 52.4117 100.645 52.5731C100.769 52.7349 100.853 52.9056 100.896 53.0857C100.938 53.2662 100.96 53.4198 100.96 53.5482C100.96 53.7617 100.918 53.9651 100.836 54.1566C100.754 54.3493 100.64 54.5172 100.497 54.6607C100.354 54.8037 100.185 54.9182 99.9898 55.0038C99.7948 55.0897 99.5815 55.1321 99.3495 55.1321H97.4111C97.2588 55.1321 97.1546 55.091 97.1001 55.0087C97.0451 54.9259 97.0178 54.8269 97.0178 54.7112V50.4631C97.0178 50.4077 97.0268 50.3714 97.0451 50.3527C97.0638 50.3347 97.098 50.3254 97.1473 50.3254H97.5368C97.5926 50.3254 97.6313 50.3347 97.6533 50.3527C97.674 50.3714 97.6854 50.4077 97.6854 50.4631V51.9826H99.2176Z" fill="inherit"></path>
    <path d="M102.908 54.6836C102.908 54.8425 102.855 54.975 102.748 55.0817C102.641 55.1885 102.509 55.2415 102.35 55.2415C102.191 55.2415 102.059 55.1885 101.953 55.0817C101.846 54.975 101.793 54.8425 101.793 54.6836C101.793 54.5247 101.846 54.3935 101.953 54.29C102.059 54.1861 102.191 54.1343 102.35 54.1343C102.509 54.1343 102.641 54.1861 102.748 54.29C102.855 54.3935 102.908 54.5247 102.908 54.6836Z" fill="inherit"></path>
    <path d="M108.643 55.0131C108.643 55.0616 108.635 55.0941 108.62 55.1088C108.604 55.1247 108.576 55.132 108.533 55.132H108.048C108 55.132 107.966 55.1247 107.947 55.1088C107.929 55.0941 107.92 55.0616 107.92 55.0131V49.3457H106.091C106.043 49.3457 106.012 49.3384 105.999 49.3229C105.987 49.3078 105.981 49.276 105.981 49.2267V48.8514C105.981 48.8029 105.987 48.7691 105.999 48.7503C106.012 48.7324 106.043 48.723 106.091 48.723H110.536C110.585 48.723 110.617 48.7324 110.632 48.7503C110.647 48.7691 110.655 48.8029 110.655 48.8514V49.2267C110.655 49.276 110.647 49.3078 110.632 49.3229C110.617 49.3384 110.585 49.3457 110.536 49.3457H108.643V55.0131Z" fill="inherit"></path>
    <path d="M113.967 53.6853C113.967 53.4294 113.88 53.2232 113.706 53.0675C113.533 52.9119 113.272 52.834 112.924 52.834H111.342V54.6009H112.924C113.144 54.6009 113.322 54.5704 113.459 54.5092C113.596 54.4481 113.702 54.3723 113.775 54.2806C113.848 54.1889 113.899 54.0899 113.926 53.9832C113.953 53.8764 113.967 53.777 113.967 53.6853ZM111.342 52.2941H112.952C113.025 52.2941 113.108 52.2835 113.203 52.2623C113.298 52.2411 113.386 52.2033 113.469 52.1482C113.551 52.094 113.619 52.0211 113.674 51.9302C113.729 51.8394 113.756 51.724 113.756 51.5847C113.756 51.3964 113.691 51.2371 113.56 51.1071C113.429 50.9767 113.247 50.9115 113.016 50.9115H111.342V52.2941ZM113.794 52.55C113.958 52.5993 114.095 52.6645 114.205 52.7468C114.314 52.8296 114.403 52.9241 114.47 53.0309C114.537 53.138 114.584 53.2517 114.611 53.374C114.639 53.4966 114.652 53.6156 114.652 53.7313C114.652 53.9387 114.613 54.1282 114.534 54.2986C114.455 54.4701 114.345 54.6176 114.205 54.7427C114.065 54.8678 113.899 54.9644 113.706 55.0312C113.514 55.0985 113.303 55.1319 113.071 55.1319H111.041C110.796 55.1319 110.675 55.0194 110.675 54.7933V50.6642C110.675 50.4388 110.796 50.3255 111.041 50.3255H112.998C113.418 50.3255 113.764 50.4213 114.035 50.6136C114.306 50.8064 114.442 51.1071 114.442 51.5154C114.442 51.7175 114.389 51.9111 114.282 52.0973C114.175 52.2835 114.015 52.4192 113.802 52.5044L113.794 52.55Z" fill="inherit"></path>
    <path d="M119.323 52.6235C119.323 52.3627 119.3 52.1117 119.254 51.8716C119.208 51.6312 119.129 51.4189 119.017 51.2335C118.904 51.0485 118.748 50.8998 118.55 50.7869C118.352 50.6748 118.1 50.6182 117.795 50.6182C117.521 50.6182 117.285 50.6728 117.087 50.7824C116.889 50.892 116.725 51.0379 116.597 51.2197C116.47 51.4022 116.376 51.6133 116.319 51.8529C116.261 52.0933 116.232 52.3468 116.232 52.6141C116.232 52.9001 116.256 53.1658 116.305 53.4119C116.353 53.6581 116.438 53.8704 116.556 54.0497C116.675 54.229 116.834 54.3704 117.032 54.4739C117.23 54.577 117.476 54.6283 117.768 54.6283C118.06 54.6283 118.308 54.5721 118.509 54.46C118.71 54.3471 118.871 54.1984 118.989 54.0134C119.108 53.828 119.193 53.6137 119.245 53.3708C119.297 53.1279 119.323 52.879 119.323 52.6235ZM119.99 52.6141C119.99 53.4441 119.804 54.0851 119.433 54.5366C119.061 54.9889 118.503 55.2143 117.759 55.2143C117.015 55.2143 116.464 54.9857 116.103 54.5281C115.744 54.07 115.564 53.4356 115.564 52.6235C115.564 52.2086 115.618 51.8407 115.729 51.5204C115.838 51.1997 115.991 50.9295 116.186 50.7095C116.381 50.4907 116.614 50.3224 116.885 50.2066C117.156 50.0905 117.454 50.0326 117.778 50.0326C118.509 50.0326 119.061 50.2612 119.433 50.7189C119.804 51.1769 119.99 51.8089 119.99 52.6141Z" fill="inherit"></path>
    <path d="M124.442 52.715C124.442 52.3568 124.406 52.0561 124.333 51.8132C124.259 51.5704 124.156 51.3744 124.022 51.2252C123.887 51.0765 123.729 50.9701 123.546 50.9066C123.363 50.8422 123.159 50.8104 122.934 50.8104C122.769 50.8104 122.575 50.8275 122.352 50.8609C122.13 50.8948 121.936 50.9445 121.772 51.0113V54.4558C122.028 54.5402 122.249 54.594 122.435 54.6151C122.621 54.6363 122.784 54.6469 122.924 54.6469C123.144 54.6469 123.347 54.6119 123.533 54.5422C123.718 54.4725 123.878 54.3596 124.012 54.2048C124.147 54.0504 124.252 53.8499 124.328 53.6038C124.404 53.3576 124.442 53.0614 124.442 52.715ZM125.138 52.715C125.138 53.0687 125.095 53.3988 125.01 53.704C124.924 54.0092 124.793 54.2745 124.616 54.5006C124.439 54.726 124.218 54.9049 123.953 55.0361C123.688 55.1669 123.379 55.2329 123.025 55.2329C122.848 55.2329 122.653 55.2203 122.439 55.1954C122.226 55.1706 122.003 55.1245 121.772 55.056V56.8808C121.772 56.9293 121.764 56.9598 121.749 56.9725C121.734 56.9843 121.702 56.9904 121.653 56.9904H121.232C121.19 56.9904 121.158 56.9843 121.136 56.9725C121.115 56.9598 121.105 56.9293 121.105 56.8808V50.7008C121.105 50.6274 121.138 50.579 121.205 50.5545C121.498 50.4261 121.804 50.3389 122.124 50.2937C122.444 50.2477 122.751 50.2244 123.043 50.2244C123.403 50.2244 123.716 50.2856 123.981 50.4078C124.246 50.5305 124.464 50.7008 124.634 50.9208C124.805 51.1401 124.932 51.4029 125.014 51.7081C125.096 52.0133 125.138 52.3487 125.138 52.715Z" fill="inherit"></path>
    <path d="M126.2 50.4444C126.2 50.3592 126.243 50.316 126.328 50.316H126.74C126.825 50.316 126.868 50.3592 126.868 50.4444V54.1799L126.895 54.1892C126.92 54.1526 126.961 54.0902 127.018 54.001C127.076 53.9126 127.137 53.818 127.201 53.7178C127.265 53.6167 127.326 53.521 127.384 53.4293C127.442 53.338 127.484 53.2769 127.508 53.2463C127.55 53.1791 127.618 53.0768 127.709 52.9391C127.8 52.8021 127.902 52.6465 128.016 52.4721C128.128 52.2985 128.249 52.1151 128.376 51.9228C128.505 51.7313 128.626 51.5479 128.742 51.3735C128.858 51.1999 128.964 51.041 129.058 50.8979C129.152 50.7545 129.228 50.6461 129.282 50.5728C129.337 50.4811 129.388 50.4171 129.433 50.3804C129.479 50.3433 129.556 50.3254 129.666 50.3254H129.867C130.075 50.3254 130.178 50.4326 130.178 50.6461V55.0132C130.178 55.0617 130.17 55.0939 130.151 55.1089C130.132 55.1244 130.099 55.1322 130.051 55.1322H129.639C129.59 55.1322 129.556 55.1244 129.538 55.1089C129.52 55.0939 129.51 55.0617 129.51 55.0132V51.305H129.465C129.447 51.3295 129.413 51.3816 129.364 51.4607C129.315 51.5397 129.262 51.6257 129.204 51.7174C129.147 51.8091 129.091 51.8943 129.04 51.9733C128.988 52.0532 128.953 52.1045 128.934 52.129L127.087 54.8848C127.026 54.9826 126.968 55.0478 126.913 55.0816C126.858 55.1151 126.788 55.1322 126.703 55.1322H126.529C126.31 55.1322 126.2 55.0254 126.2 54.8115V50.4444Z" fill="inherit"></path>
    <path d="M133.294 54.9856C133.294 55.0467 133.283 55.0867 133.261 55.1046C133.239 55.1234 133.204 55.1319 133.154 55.1319H132.774C132.718 55.1319 132.68 55.1234 132.659 55.1046C132.637 55.0867 132.626 55.0467 132.626 54.9856V50.9115H131.162C131.101 50.9115 131.062 50.9009 131.043 50.8789C131.026 50.8573 131.016 50.8247 131.016 50.7811V50.4743C131.016 50.4246 131.026 50.3875 131.043 50.3627C131.062 50.3378 131.101 50.3256 131.162 50.3256H134.839C134.9 50.3256 134.938 50.3378 134.954 50.3627C134.968 50.3875 134.976 50.4246 134.976 50.4743V50.7811C134.976 50.8247 134.968 50.8573 134.954 50.8789C134.938 50.9009 134.9 50.9115 134.839 50.9115H133.294V54.9856Z" fill="inherit"></path>
    <path d="M136.477 52.5319V54.5828H138.008C138.233 54.5828 138.416 54.5462 138.559 54.4732C138.702 54.3995 138.814 54.3082 138.897 54.1986C138.979 54.0881 139.033 53.9736 139.061 53.8546C139.088 53.7357 139.102 53.6305 139.102 53.5388C139.102 53.4105 139.081 53.2854 139.038 53.1635C138.996 53.0413 138.928 52.9329 138.837 52.8384C138.746 52.7442 138.632 52.6688 138.496 52.6142C138.359 52.5592 138.197 52.5319 138.008 52.5319H136.477ZM138.009 51.9826C138.38 51.9826 138.679 52.0405 138.907 52.1562C139.135 52.2728 139.312 52.4117 139.436 52.5731C139.561 52.7349 139.645 52.9056 139.687 53.0857C139.73 53.2662 139.752 53.4198 139.752 53.5482C139.752 53.7617 139.71 53.9651 139.627 54.1566C139.546 54.3493 139.432 54.5172 139.289 54.6607C139.146 54.8037 138.977 54.9182 138.781 55.0038C138.587 55.0897 138.373 55.1321 138.141 55.1321H136.203C136.05 55.1321 135.946 55.091 135.892 55.0087C135.837 54.9259 135.809 54.8269 135.809 54.7112V50.4631C135.809 50.4077 135.818 50.3714 135.837 50.3527C135.855 50.3347 135.89 50.3254 135.939 50.3254H136.329C136.384 50.3254 136.423 50.3347 136.445 50.3527C136.466 50.3714 136.477 50.4077 136.477 50.4631V51.9826H138.009Z" fill="inherit"></path>
    <path d="M141.7 54.6836C141.7 54.8425 141.646 54.975 141.54 55.0817C141.433 55.1885 141.3 55.2415 141.142 55.2415C140.983 55.2415 140.851 55.1885 140.744 55.0817C140.637 54.975 140.584 54.8425 140.584 54.6836C140.584 54.5247 140.637 54.3935 140.744 54.29C140.851 54.1861 140.983 54.1343 141.142 54.1343C141.3 54.1343 141.433 54.1861 141.54 54.29C141.646 54.3935 141.7 54.5247 141.7 54.6836Z" fill="inherit"></path>
    <path d="M147.947 54.5734C148.221 54.5734 148.483 54.5416 148.733 54.4776C148.983 54.4132 149.224 54.326 149.456 54.2164C149.517 54.1924 149.559 54.1891 149.583 54.207C149.608 54.2258 149.626 54.2502 149.639 54.2808L149.785 54.6007C149.815 54.6618 149.826 54.7046 149.817 54.729C149.808 54.7535 149.785 54.7783 149.748 54.8024C149.596 54.8941 149.436 54.967 149.268 55.0224C149.101 55.077 148.932 55.1214 148.765 55.1549C148.597 55.1887 148.433 55.2099 148.271 55.2192C148.109 55.2278 147.962 55.2327 147.828 55.2327C147.407 55.2327 147.032 55.1687 146.703 55.0404C146.373 54.912 146.093 54.7172 145.861 54.4544C145.63 54.1924 145.452 53.8599 145.331 53.4568C145.209 53.0538 145.148 52.575 145.148 52.0192C145.148 51.5005 145.213 51.0323 145.345 50.6138C145.476 50.1961 145.661 49.8404 145.902 49.547C146.143 49.2544 146.431 49.0287 146.767 48.8701C147.102 48.7112 147.473 48.6314 147.883 48.6314C148.144 48.6314 148.416 48.6566 148.696 48.7051C148.977 48.754 149.273 48.8575 149.583 49.0164C149.614 49.0287 149.635 49.0482 149.647 49.0755C149.66 49.1028 149.65 49.1448 149.62 49.1994L149.447 49.547C149.428 49.578 149.41 49.5991 149.392 49.611C149.373 49.6236 149.343 49.6203 149.3 49.6024C149.068 49.4924 148.837 49.4129 148.605 49.364C148.373 49.3151 148.142 49.2911 147.91 49.2911C147.55 49.2911 147.242 49.3677 146.986 49.5197C146.73 49.6721 146.52 49.8738 146.355 50.1244C146.19 50.3746 146.068 50.6643 145.989 50.9936C145.91 51.3232 145.87 51.6651 145.87 52.0192C145.87 52.3856 145.905 52.7242 145.976 53.0359C146.046 53.3464 146.163 53.617 146.328 53.846C146.492 54.0746 146.707 54.2531 146.972 54.3814C147.238 54.5094 147.563 54.5734 147.947 54.5734Z" fill="inherit"></path>
    <path d="M154.188 52.6235C154.188 52.3627 154.165 52.1117 154.12 51.8716C154.074 51.6312 153.995 51.4189 153.882 51.2335C153.769 51.0485 153.613 50.8998 153.416 50.7869C153.217 50.6748 152.966 50.6182 152.661 50.6182C152.387 50.6182 152.15 50.6728 151.952 50.7824C151.754 50.892 151.591 51.0379 151.463 51.2197C151.335 51.4022 151.242 51.6133 151.184 51.8529C151.126 52.0933 151.097 52.3468 151.097 52.6141C151.097 52.9001 151.121 53.1658 151.17 53.4119C151.219 53.6581 151.303 53.8704 151.422 54.0497C151.541 54.229 151.699 54.3704 151.898 54.4739C152.096 54.577 152.341 54.6283 152.634 54.6283C152.926 54.6283 153.173 54.5721 153.374 54.46C153.576 54.3471 153.736 54.1984 153.855 54.0134C153.974 53.828 154.059 53.6137 154.11 53.3708C154.162 53.1279 154.188 52.879 154.188 52.6235ZM154.856 52.6141C154.856 53.4441 154.67 54.0851 154.299 54.5366C153.926 54.9889 153.368 55.2143 152.624 55.2143C151.881 55.2143 151.329 54.9857 150.969 54.5281C150.609 54.07 150.429 53.4356 150.429 52.6235C150.429 52.2086 150.484 51.8407 150.594 51.5204C150.704 51.1997 150.856 50.9295 151.051 50.7095C151.246 50.4907 151.48 50.3224 151.751 50.2066C152.022 50.0905 152.319 50.0326 152.643 50.0326C153.374 50.0326 153.926 50.2612 154.299 50.7189C154.67 51.1769 154.856 51.8089 154.856 52.6141Z" fill="inherit"></path>
    <path d="M158.171 52.5961C158.506 52.6633 158.755 52.8023 158.916 53.0125C159.078 53.2232 159.159 53.4657 159.159 53.7403C159.159 53.942 159.119 54.1323 159.04 54.3124C158.96 54.4925 158.839 54.6498 158.674 54.7839C158.509 54.9184 158.304 55.0255 158.057 55.1046C157.81 55.1836 157.522 55.2236 157.192 55.2236C157.052 55.2236 156.904 55.2175 156.749 55.2056C156.593 55.193 156.438 55.173 156.283 55.1457C156.127 55.1184 155.979 55.0834 155.839 55.0406C155.699 54.9982 155.574 54.9457 155.464 54.8849C155.415 54.8605 155.406 54.8149 155.437 54.7476L155.583 54.4363C155.613 54.387 155.641 54.3629 155.665 54.3629C155.684 54.3629 155.711 54.3723 155.748 54.3903C155.906 54.4575 156.109 54.5231 156.355 54.5871C156.603 54.651 156.851 54.6836 157.101 54.6836C157.601 54.6836 157.962 54.5903 158.185 54.4041C158.407 54.2179 158.519 53.9872 158.519 53.7126C158.519 53.4628 158.405 53.2599 158.18 53.1042C157.954 52.9486 157.586 52.8707 157.074 52.8707C156.988 52.8707 156.924 52.8569 156.881 52.8296C156.839 52.8023 156.818 52.7485 156.818 52.669V52.5227C156.818 52.3826 156.9 52.3121 157.064 52.3121C157.29 52.3121 157.479 52.2941 157.632 52.2579C157.784 52.2212 157.906 52.1682 157.998 52.0985C158.089 52.0289 158.154 51.9465 158.194 51.8524C158.234 51.7583 158.254 51.654 158.254 51.5386C158.254 51.0598 157.9 50.8198 157.192 50.8198C156.979 50.8198 156.789 50.8304 156.62 50.8516C156.453 50.8736 156.299 50.9148 156.159 50.9755C156.135 50.9881 156.11 50.9938 156.086 50.9938C156.043 50.9938 156.013 50.9726 155.994 50.9294L155.876 50.6336C155.857 50.5969 155.848 50.566 155.848 50.5411C155.848 50.5097 155.869 50.4849 155.912 50.4661C156.077 50.3797 156.27 50.319 156.493 50.2848C156.715 50.2514 156.973 50.2339 157.266 50.2339C157.796 50.2339 158.205 50.339 158.491 50.5497C158.778 50.7603 158.921 51.0672 158.921 51.4702C158.921 51.7016 158.863 51.9172 158.747 52.1152C158.631 52.3141 158.437 52.4649 158.162 52.5688L158.171 52.5961Z" fill="inherit"></path>
    <path d="M160.194 50.4444C160.194 50.3592 160.236 50.316 160.321 50.316H160.733C160.818 50.316 160.861 50.3592 160.861 50.4444V54.1799L160.888 54.1892C160.913 54.1526 160.954 54.0902 161.012 54.001C161.07 53.9126 161.131 53.818 161.195 53.7178C161.258 53.6167 161.319 53.521 161.377 53.4293C161.435 53.338 161.477 53.2769 161.501 53.2463C161.543 53.1791 161.611 53.0768 161.702 52.9391C161.794 52.8021 161.895 52.6465 162.009 52.4721C162.121 52.2985 162.242 52.1151 162.37 51.9228C162.498 51.7313 162.62 51.5479 162.736 51.3735C162.851 51.1999 162.957 51.041 163.052 50.8979C163.146 50.7545 163.221 50.6461 163.275 50.5728C163.33 50.4811 163.381 50.4171 163.426 50.3804C163.472 50.3433 163.55 50.3254 163.659 50.3254H163.861C164.068 50.3254 164.171 50.4326 164.171 50.6461V55.0132C164.171 55.0617 164.163 55.0939 164.144 55.1089C164.126 55.1244 164.092 55.1322 164.044 55.1322H163.632C163.584 55.1322 163.55 55.1244 163.531 55.1089C163.513 55.0939 163.504 55.0617 163.504 55.0132V51.305H163.459C163.44 51.3295 163.406 51.3816 163.358 51.4607C163.308 51.5397 163.255 51.6257 163.198 51.7174C163.14 51.8091 163.085 51.8943 163.033 51.9733C162.981 52.0532 162.947 52.1045 162.928 52.129L161.081 54.8848C161.019 54.9826 160.961 55.0478 160.906 55.0816C160.852 55.1151 160.781 55.1322 160.696 55.1322H160.522C160.303 55.1322 160.194 55.0254 160.194 54.8115V50.4444Z" fill="inherit"></path>
    <path d="M168.924 50.9115H167.049L166.728 52.7749C166.686 53.05 166.645 53.2822 166.605 53.4721C166.565 53.6616 166.527 53.8254 166.491 53.9632C166.454 54.1005 166.414 54.217 166.372 54.312C166.329 54.4069 166.277 54.4974 166.216 54.5825H168.924V50.9115ZM165.485 54.5825C165.643 54.4122 165.76 54.206 165.837 53.9648C165.913 53.724 165.982 53.4379 166.042 53.1087L166.454 50.7191C166.472 50.579 166.521 50.4779 166.601 50.4172C166.68 50.3561 166.798 50.3255 166.957 50.3255H169.189C169.365 50.3255 169.477 50.3622 169.522 50.4351C169.568 50.5085 169.591 50.603 169.591 50.7191V54.5825L169.838 54.6009C169.96 54.6131 170.035 54.6514 170.062 54.7154C170.089 54.7794 170.1 54.8393 170.094 54.8943L170.002 56.1571C170.002 56.2304 169.972 56.2671 169.911 56.2671H169.5C169.45 56.2671 169.423 56.2304 169.417 56.1571L169.371 55.1318H165.741L165.649 56.1665C165.649 56.2031 165.638 56.2292 165.617 56.2443C165.596 56.2598 165.573 56.2671 165.549 56.2671H165.173C165.125 56.2671 165.098 56.2337 165.092 56.1665L165 54.9122C164.994 54.845 165.007 54.7814 165.041 54.7199C165.074 54.6592 165.149 54.6225 165.265 54.6103L165.485 54.5825Z" fill="inherit"></path>
    <path d="M174.014 52.697H172.834C172.725 52.697 172.594 52.7055 172.441 52.7243C172.289 52.7426 172.144 52.7866 172.006 52.8571C171.869 52.9272 171.754 53.0307 171.659 53.1684C171.565 53.3053 171.517 53.4936 171.517 53.7316C171.517 53.9145 171.552 54.0669 171.622 54.1892C171.693 54.311 171.787 54.4088 171.906 54.4818C172.025 54.5551 172.161 54.6056 172.313 54.6334C172.465 54.6607 172.624 54.6741 172.788 54.6741C172.844 54.6741 172.918 54.6713 173.013 54.6647C173.107 54.6594 173.212 54.6501 173.328 54.6374C173.444 54.6256 173.562 54.6089 173.68 54.5869C173.799 54.5657 173.91 54.5311 174.014 54.4818V52.697ZM174.7 54.7112C174.688 54.8151 174.645 54.888 174.572 54.9308C174.298 55.0466 174.005 55.1256 173.694 55.1688C173.383 55.2112 173.085 55.2328 172.798 55.2328C172.408 55.2328 172.087 55.19 171.838 55.1044C171.588 55.0192 171.389 54.9076 171.243 54.7703C171.097 54.6334 170.995 54.4744 170.936 54.2943C170.878 54.1142 170.85 53.9268 170.85 53.7316C170.85 53.5054 170.889 53.2935 170.969 53.0951C171.048 52.897 171.168 52.7243 171.33 52.5776C171.491 52.4309 171.694 52.3164 171.938 52.2341C172.182 52.1522 172.471 52.111 172.807 52.111H174.023V51.8637C174.023 51.7113 174.008 51.569 173.978 51.4378C173.947 51.307 173.889 51.1954 173.803 51.1041C173.718 51.0124 173.599 50.9407 173.447 50.8885C173.295 50.8368 173.096 50.8107 172.853 50.8107C172.694 50.8107 172.54 50.8201 172.391 50.838C172.242 50.8567 172.081 50.8934 171.911 50.948C171.867 50.9603 171.834 50.9651 171.81 50.9619C171.786 50.9586 171.767 50.9358 171.755 50.8934L171.663 50.5634C171.646 50.4965 171.67 50.4505 171.737 50.4264C171.846 50.3832 171.943 50.3515 172.025 50.3299C172.107 50.3087 172.194 50.2907 172.285 50.2748C172.377 50.2602 172.482 50.2475 172.601 50.2382C172.72 50.2296 172.841 50.2247 172.962 50.2247C173.553 50.2247 173.991 50.3559 174.274 50.618C174.558 50.8808 174.7 51.265 174.7 51.772V54.7112Z" fill="inherit"></path>
    <path d="M177.742 54.9856C177.742 55.0467 177.731 55.0867 177.709 55.1046C177.687 55.1234 177.653 55.1319 177.603 55.1319H177.223C177.167 55.1319 177.128 55.1234 177.107 55.1046C177.085 55.0867 177.074 55.0467 177.074 54.9856V50.9115H175.611C175.55 50.9115 175.511 50.9009 175.492 50.8789C175.474 50.8573 175.465 50.8247 175.465 50.7811V50.4743C175.465 50.4246 175.474 50.3875 175.492 50.3627C175.511 50.3378 175.55 50.3256 175.611 50.3256H179.288C179.349 50.3256 179.386 50.3378 179.402 50.3627C179.417 50.3875 179.425 50.4246 179.425 50.4743V50.7811C179.425 50.8247 179.417 50.8573 179.402 50.8789C179.386 50.9009 179.349 50.9115 179.288 50.9115H177.742V54.9856Z" fill="inherit"></path>
    <path d="M180.926 52.5319V54.5828H182.457C182.681 54.5828 182.865 54.5462 183.008 54.4732C183.151 54.3995 183.263 54.3082 183.345 54.1986C183.427 54.0881 183.482 53.9736 183.509 53.8546C183.537 53.7357 183.55 53.6305 183.55 53.5388C183.55 53.4105 183.529 53.2854 183.486 53.1635C183.444 53.0413 183.377 52.9329 183.286 52.8384C183.195 52.7442 183.081 52.6688 182.944 52.6142C182.808 52.5592 182.645 52.5319 182.457 52.5319H180.926ZM182.458 51.9826C182.829 51.9826 183.128 52.0405 183.356 52.1562C183.584 52.2728 183.761 52.4117 183.885 52.5731C184.01 52.7349 184.093 52.9056 184.136 53.0857C184.178 53.2662 184.2 53.4198 184.2 53.5482C184.2 53.7617 184.158 53.9651 184.076 54.1566C183.994 54.3493 183.881 54.5172 183.738 54.6607C183.594 54.8037 183.425 54.9182 183.23 55.0038C183.035 55.0897 182.822 55.1321 182.59 55.1321H180.651C180.499 55.1321 180.395 55.091 180.34 55.0087C180.285 54.9259 180.258 54.8269 180.258 54.7112V50.4631C180.258 50.4077 180.267 50.3714 180.285 50.3527C180.304 50.3347 180.338 50.3254 180.388 50.3254H180.777C180.833 50.3254 180.872 50.3347 180.893 50.3527C180.915 50.3714 180.926 50.4077 180.926 50.4631V51.9826H182.458Z" fill="inherit"></path>
    <path d="M186.148 54.6836C186.148 54.8425 186.095 54.975 185.988 55.0817C185.881 55.1885 185.749 55.2415 185.59 55.2415C185.432 55.2415 185.299 55.1885 185.193 55.0817C185.086 54.975 185.033 54.8425 185.033 54.6836C185.033 54.5247 185.086 54.3935 185.193 54.29C185.299 54.1861 185.432 54.1343 185.59 54.1343C185.749 54.1343 185.881 54.1861 185.988 54.29C186.095 54.3935 186.148 54.5247 186.148 54.6836Z" fill="inherit"></path>
  </symbol>
  <symbol  xmlns="http://www.w3.org/2000/svg" viewBox="0 0 20 28" id="menu_about">
    <path d="M10.0004 18.9611C10.2357 18.9611 10.4431 18.8686 10.6229 18.6836C10.8027 18.4985 10.8925 18.281 10.8925 18.0309C10.8925 17.7807 10.8025 17.5602 10.6225 17.3691C10.4425 17.1779 10.2348 17.0824 9.99966 17.0824C9.76444 17.0824 9.5599 17.178 9.38623 17.3694C9.21247 17.5609 9.12555 17.7816 9.12555 18.0317C9.12555 18.2819 9.21256 18.4993 9.38657 18.684C9.56058 18.8688 9.7652 18.9611 10.0004 18.9611ZM9.43992 14.8348H10.5782C10.5842 14.4844 10.6075 14.204 10.6482 13.9933C10.6888 13.7826 10.7721 13.572 10.898 13.3612C11.028 13.1551 11.1863 12.9344 11.3726 12.699C11.559 12.4637 11.8417 12.1529 12.2204 11.7668C12.6847 11.2975 13.0203 10.837 13.2272 10.3856C13.434 9.93418 13.5375 9.42062 13.5375 8.84493C13.5375 7.86963 13.2126 7.07382 12.5628 6.45753C11.913 5.84124 11.1091 5.53309 10.1511 5.53309C9.35596 5.53309 8.63811 5.75242 7.9973 6.19108C7.35654 6.62976 6.8889 7.21983 6.5944 7.96129L7.63507 8.42617C7.87536 7.89531 8.2111 7.47925 8.64233 7.17796C9.07347 6.87668 9.57681 6.72605 10.1521 6.72605C10.765 6.72605 11.2926 6.92231 11.7353 7.31484C12.178 7.70738 12.3993 8.22318 12.3993 8.86224C12.3993 9.33195 12.3028 9.74133 12.1098 10.0905C11.9167 10.4396 11.5719 10.8638 11.0753 11.3629C10.7409 11.6796 10.4661 11.9748 10.2511 12.2485C10.0361 12.5222 9.87774 12.7942 9.77602 13.0643C9.65012 13.3301 9.56261 13.6054 9.51357 13.89C9.46453 14.1747 9.43992 14.4895 9.43992 14.8348ZM10 25.798C12.7245 23.2738 14.8736 20.7212 16.4472 18.1404C18.0208 15.5594 18.8076 13.3235 18.8076 11.4326C18.8076 8.62177 17.9732 6.30347 16.3044 4.4777C14.6355 2.65194 12.5341 1.73907 10 1.73907C7.46594 1.73907 5.36447 2.65194 3.69563 4.4777C2.02682 6.30347 1.19241 8.62177 1.19241 11.4326C1.19241 13.3235 1.98494 15.5594 3.57001 18.1404C5.15507 20.7212 7.2984 23.2738 10 25.798ZM10 27.5C6.68835 24.3861 4.19377 21.4819 2.51626 18.7877C0.838754 16.0935 0 13.6417 0 11.4326C0 8.26287 0.970643 5.64835 2.91194 3.58899C4.8532 1.52966 7.2159 0.5 10 0.5C12.7842 0.5 15.1468 1.52966 17.0881 3.58899C19.0294 5.64835 20 8.26287 20 11.4326C20 13.6417 19.1612 16.0935 17.4838 18.7877C15.8063 21.4819 13.3117 24.3861 10 27.5Z" fill="inherit"></path>
  </symbol>
  <symbol  xmlns="http://www.w3.org/2000/svg" viewBox="0 0 26 23" id="menu_academy">
    <path d="M12.9944 22.5L4.14096 17.485V10.1516L0 7.83332L12.9944 0.5L26 7.83332V17.4579H24.7672V8.57249L21.8478 10.1516V17.485L12.9944 22.5ZM12.9944 13.7077L23.4 7.83332L12.9944 1.99575L2.60001 7.83332L12.9944 13.7077ZM12.9944 21.044L20.6151 16.7313V10.9102L12.9944 15.1612L5.37371 10.8792V16.7313L12.9944 21.044Z" fill="inherit"></path>
  </symbol>
  <symbol  xmlns="http://www.w3.org/2000/svg" viewBox="0 0 26 25" id="menu_case">
    <path d="M20.177 22.6502C20.3552 22.6502 20.5045 22.5904 20.625 22.4709C20.7455 22.3514 20.8057 22.1966 20.8057 22.0066C20.8057 21.8168 20.7448 21.6591 20.6228 21.5337C20.5009 21.4082 20.3559 21.3455 20.1878 21.3455C20.0024 21.3455 19.8502 21.4082 19.7314 21.5337C19.6126 21.6591 19.5532 21.8168 19.5532 22.0066C19.5532 22.1966 19.6126 22.3514 19.7314 22.4709C19.8502 22.5904 19.9988 22.6502 20.177 22.6502ZM19.7065 20.0743H20.6475V16.1373H19.7065V20.0743ZM1.79165 20.1323V20.9763V5.46748V20.1323ZM2.5911 22.1368C2.05896 22.1368 1.60947 21.9432 1.24263 21.5559C0.8758 21.1686 0.692383 20.6941 0.692383 20.1323V6.31148C0.692383 5.74968 0.8758 5.27515 1.24263 4.88787C1.60947 4.5006 2.05896 4.30696 2.5911 4.30696H8.48722V2.1969C8.48722 1.63599 8.67063 1.16168 9.03745 0.773944C9.40428 0.386236 9.85381 0.192383 10.386 0.192383H14.3833C14.9155 0.192383 15.365 0.386236 15.7318 0.773944C16.0986 1.16168 16.2821 1.63599 16.2821 2.1969V4.30696H22.1781C22.7103 4.30696 23.1598 4.5006 23.5266 4.88787C23.8935 5.27515 24.0769 5.74968 24.0769 6.31148V12.6355C23.9059 12.5153 23.731 12.4047 23.5522 12.3036C23.3735 12.2025 23.182 12.1053 22.9777 12.0121V6.31148C22.9777 6.06532 22.9027 5.8631 22.7528 5.70486C22.6029 5.5466 22.4114 5.46748 22.1781 5.46748H2.5911C2.35794 5.46748 2.16639 5.5466 2.0165 5.70486C1.8666 5.8631 1.79165 6.06532 1.79165 6.31148V20.1323C1.79165 20.3784 1.8666 20.5807 2.0165 20.7389C2.16639 20.8972 2.35794 20.9763 2.5911 20.9763H12.7868C12.8385 21.1867 12.8918 21.3872 12.9468 21.5777C13.0018 21.7682 13.0667 21.9546 13.1417 22.1368H2.5911ZM9.58652 4.30696H15.1828V2.1969C15.1828 1.95074 15.1078 1.74852 14.9579 1.59028C14.808 1.43202 14.6165 1.3529 14.3833 1.3529H10.386C10.1527 1.3529 9.96122 1.43202 9.81133 1.59028C9.66143 1.74852 9.58652 1.95074 9.58652 2.1969V4.30696ZM20.1795 24.8078C18.7565 24.8078 17.5461 24.281 16.5481 23.2274C15.5502 22.1739 15.0512 20.896 15.0512 19.3937C15.0512 17.8915 15.5502 16.6136 16.5481 15.5601C17.5461 14.5065 18.7565 13.9797 20.1795 13.9797C21.6024 13.9797 22.8129 14.5065 23.8108 15.5601C24.8087 16.6136 25.3078 17.8915 25.3078 19.3937C25.3078 20.896 24.8087 22.1739 23.8108 23.2274C22.8129 24.281 21.6024 24.8078 20.1795 24.8078Z" fill="inherit"></path>
  </symbol>
  <symbol  xmlns="http://www.w3.org/2000/svg" viewBox="0 0 24 23" id="menu_clients">
    <path d="M12.0001 10.3324C10.5858 10.3324 9.39698 9.8599 8.43378 8.91492C7.47061 7.96997 6.98903 6.80012 6.98903 5.40538C6.98903 4.01068 7.47061 2.84443 8.43378 1.90666C9.39698 0.968888 10.5858 0.5 12.0001 0.5C13.4143 0.5 14.6031 0.968888 15.5662 1.90666C16.5294 2.84443 17.0111 4.01068 17.0111 5.40538C17.0111 6.80012 16.5294 7.96997 15.5662 8.91492C14.6031 9.8599 13.4143 10.3324 12.0001 10.3324ZM0 22.5V19.9556C0 19.2297 0.213 18.5711 0.639001 17.98C1.065 17.3888 1.62856 16.9283 2.32968 16.5984C3.99854 15.8559 5.63348 15.2954 7.23451 14.917C8.83551 14.5386 10.4238 14.3494 11.9993 14.3494C13.5749 14.3494 15.1623 14.5397 16.7616 14.9202C18.3608 15.3009 19.9909 15.8635 21.6518 16.6082C22.3687 16.9345 22.9393 17.3925 23.3636 17.9822C23.7879 18.5719 24 19.2297 24 19.9556V22.5H0ZM1.45054 21.0768H22.5495V19.9556C22.5495 19.5466 22.4109 19.1557 22.1336 18.7826C21.8562 18.4097 21.4755 18.0984 20.9912 17.849C19.4923 17.1324 18.0017 16.6072 16.5191 16.2734C15.0366 15.9394 13.5303 15.7725 12.0001 15.7725C10.4697 15.7725 8.95752 15.9394 7.46333 16.2734C5.9691 16.6072 4.48205 17.1324 3.00219 17.849C2.51794 18.0984 2.13826 18.4097 1.86318 18.7826C1.58809 19.1557 1.45054 19.5466 1.45054 19.9556V21.0768ZM12.0001 8.90928C12.9986 8.90928 13.8416 8.57201 14.5291 7.89748C15.2167 7.22291 15.5605 6.39582 15.5605 5.41619C15.5605 4.43654 15.2167 3.60944 14.5291 2.93491C13.8416 2.26037 12.9986 1.9231 12.0001 1.9231C11.0015 1.9231 10.1584 2.26037 9.47088 2.93491C8.78334 3.60944 8.43957 4.43654 8.43957 5.41619C8.43957 6.39582 8.78334 7.22291 9.47088 7.89748C10.1584 8.57201 11.0015 8.90928 12.0001 8.90928Z" fill="inherit"></path>
  </symbol>
  <symbol  xmlns="http://www.w3.org/2000/svg" viewBox="0 0 32 30" id="menu_connection">
    <path d="M7.75886 0.854337C8.1343 0.63955 8.61437 0.767014 8.83113 1.13903L11.4477 5.62972C11.6644 6.00174 11.5358 6.47744 11.1603 6.69223C10.7849 6.90702 10.3048 6.77955 10.0881 6.40753L7.47154 1.91684C7.25478 1.54482 7.38342 1.06912 7.75886 0.854337Z" fill="inherit"></path>
    <path d="M20.8415 23.3078C21.2169 23.093 21.697 23.2204 21.9138 23.5925L24.5303 28.0832C24.747 28.4552 24.6184 28.9309 24.243 29.1457C23.8675 29.3604 23.3875 29.233 23.1707 28.861L20.5542 24.3703C20.3374 23.9983 20.466 23.5226 20.8415 23.3078Z" fill="inherit"></path>
    <path d="M20.6887 13.5236C21.0217 13.2486 21.0667 12.7581 20.7892 12.4281C20.5116 12.0981 20.0167 12.0535 19.6836 12.3286L15.1624 16.0619L12.3158 13.7113C11.9827 13.4363 11.4878 13.4809 11.2102 13.8109C10.9327 14.1409 10.9777 14.6314 11.3107 14.9064L15.1624 18.0869L20.6887 13.5236Z" fill="inherit"></path>
    <path fill-rule="evenodd" clip-rule="evenodd" d="M24.3726 15.0002C24.3726 19.5823 20.6239 23.2969 15.9997 23.2969C11.3755 23.2969 7.62682 19.5823 7.62682 15.0002C7.62682 10.4181 11.3755 6.70361 15.9997 6.70361C20.6239 6.70361 24.3726 10.4181 24.3726 15.0002ZM22.8027 15.0002C22.8027 18.7232 19.7569 21.7413 15.9997 21.7413C12.2425 21.7413 9.19674 18.7232 9.19674 15.0002C9.19674 11.2773 12.2425 8.25923 15.9997 8.25923C19.7569 8.25923 22.8027 11.2773 22.8027 15.0002Z" fill="inherit"></path>
    <path d="M1.34746 14.2224C0.913937 14.2224 0.5625 14.5707 0.5625 15.0002C0.5625 15.4298 0.913937 15.7781 1.34746 15.7781H5.5336C5.96712 15.7781 6.31856 15.4298 6.31856 15.0002C6.31856 14.5707 5.96712 14.2224 5.5336 14.2224H1.34746Z" fill="inherit"></path>
    <path d="M25.6808 15.0002C25.6808 14.5707 26.0323 14.2224 26.4658 14.2224H30.6525C31.0861 14.2224 31.4375 14.5707 31.4375 15.0002C31.4375 15.4298 31.0861 15.7781 30.6525 15.7781H26.4658C26.0323 15.7781 25.6808 15.4298 25.6808 15.0002Z" fill="inherit"></path>
  </symbol>
  <symbol  xmlns="http://www.w3.org/2000/svg" viewBox="0 0 31 28" id="menu_development">
    <path fill-rule="evenodd" clip-rule="evenodd" d="M0.962891 2.80357C0.962891 1.77297 1.82041 0.9375 2.87821 0.9375H17.4743C18.5321 0.9375 19.3896 1.77297 19.3896 2.80357V9.1195C19.3896 10.1501 18.5321 10.9856 17.4743 10.9856H2.87821C1.82041 10.9856 0.962891 10.1501 0.962891 9.11951V2.80357ZM2.87821 2.33705H17.4743C17.7387 2.33705 17.9531 2.54592 17.9531 2.80357V9.1195C17.9531 9.37716 17.7387 9.58602 17.4743 9.58602H2.87821C2.61376 9.58602 2.39938 9.37716 2.39938 9.11951V2.80357C2.39938 2.54592 2.61376 2.33705 2.87821 2.33705Z" fill="inherit"></path>
    <path fill-rule="evenodd" clip-rule="evenodd" d="M12.2237 14.8613V17.0144H2.87821C1.82041 17.0144 0.962891 17.8499 0.962891 18.8805V25.1964C0.962891 26.227 1.82041 27.0625 2.87821 27.0625H17.4743C18.5321 27.0625 19.3896 26.227 19.3896 25.1964V23.0433H28.7351C29.7929 23.0433 30.6504 22.2078 30.6504 21.1772V14.8613C30.6504 13.8307 29.7929 12.9952 28.7351 12.9952H14.139C13.0812 12.9952 12.2237 13.8307 12.2237 14.8613ZM28.7351 14.3947H14.139C13.8745 14.3947 13.6602 14.6036 13.6602 14.8613V17.0144H17.4743C18.5321 17.0144 19.3896 17.8499 19.3896 18.8805V21.6437H28.7351C28.9995 21.6437 29.2139 21.4348 29.2139 21.1772V14.8613C29.2139 14.6036 28.9995 14.3947 28.7351 14.3947ZM17.9531 25.1964V23.0433H14.139C13.0812 23.0433 12.2237 22.2078 12.2237 21.1772V18.414H2.87821C2.61376 18.414 2.39938 18.6228 2.39938 18.8805V25.1964C2.39938 25.4541 2.61376 25.6629 2.87821 25.6629H17.4743C17.7387 25.6629 17.9531 25.4541 17.9531 25.1964ZM14.139 21.6437H17.9531V18.8805C17.9531 18.6228 17.7387 18.414 17.4743 18.414H13.6602V21.1772C13.6602 21.4349 13.8745 21.6437 14.139 21.6437Z" fill="inherit"></path>
  </symbol>
  <symbol  xmlns="http://www.w3.org/2000/svg" viewBox="0 0 24 27" id="menu_main">
    <path d="M17.152 25.0476C16.7889 25.4853 16.3736 25.8368 15.9061 26.1021C15.4386 26.3673 14.9255 26.5 14.3667 26.5C13.4373 26.5 12.6328 26.1528 11.9534 25.4584C11.2739 24.764 10.9341 23.9363 10.9341 22.9753C10.9341 22.3884 11.0625 21.8545 11.3191 21.3738C11.5758 20.893 11.9173 20.4664 12.3439 20.0939C11.9282 19.6824 11.5893 19.2298 11.3273 18.7362C11.0652 18.2426 10.9341 17.6995 10.9341 17.107C10.9341 16.1588 11.2739 15.3491 11.9534 14.6779C12.6328 14.0067 13.4373 13.6711 14.3667 13.6711C14.9255 13.6711 15.4404 13.795 15.9114 14.0427C16.3824 14.2902 16.7959 14.6339 17.152 15.0733C17.5081 14.6339 17.9162 14.2902 18.3764 14.0427C18.8366 13.795 19.346 13.6711 19.9049 13.6711C20.8586 13.6711 21.6773 14.0105 22.3609 14.6893C23.0444 15.368 23.3862 16.1946 23.3862 17.169C23.3862 17.7447 23.2538 18.271 22.989 18.7479C22.7242 19.2248 22.3705 19.655 21.9276 20.0386C22.3705 20.424 22.7242 20.8555 22.989 21.3332C23.2538 21.8109 23.3862 22.3376 23.3862 22.9133C23.3862 23.8959 23.0492 24.7394 22.3752 25.4436C21.7012 26.1479 20.8978 26.5 19.965 26.5C19.3953 26.5 18.8732 26.3716 18.3984 26.1147C17.9235 25.8578 17.5081 25.5021 17.152 25.0476ZM21.5504 21.1435L20.3569 20.0663L21.6252 18.9471C21.8577 18.7389 22.0321 18.494 22.1484 18.2122C22.2646 17.9305 22.3227 17.6124 22.3227 17.2578C22.3227 16.5526 22.0909 15.9612 21.6271 15.4834C21.1634 15.0056 20.5893 14.7668 19.9049 14.7668C19.5445 14.7668 19.2282 14.8267 18.9562 14.9465C18.6841 15.0662 18.4519 15.2459 18.2593 15.4855L17.155 16.7921L16.0611 15.4855C15.8685 15.2459 15.6362 15.0662 15.3642 14.9465C15.0921 14.8267 14.7736 14.7668 14.4086 14.7668C13.7419 14.7668 13.1706 15.0133 12.695 15.5065C12.2192 15.9997 11.9813 16.5962 11.9813 17.2963C11.9813 17.6453 12.0472 17.9624 12.1789 18.2477C12.3107 18.533 12.5123 18.7929 12.7838 19.0277L13.961 20.0663L12.6927 21.182C12.4618 21.3813 12.2855 21.6243 12.1638 21.9108C12.0421 22.1972 11.9813 22.5185 11.9813 22.8748C11.9813 23.5749 12.2186 24.1743 12.6931 24.673C13.1676 25.1717 13.7374 25.4211 14.4024 25.4211C14.7593 25.4211 15.0828 25.3474 15.373 25.2C15.6631 25.0526 15.9247 24.8371 16.1577 24.5534L17.1596 23.3958L18.262 24.7025C18.4543 24.9309 18.6862 25.1078 18.9578 25.2331C19.2294 25.3585 19.545 25.4211 19.9049 25.4211C20.5893 25.4211 21.1634 25.1717 21.6271 24.673C22.0909 24.1743 22.3227 23.5749 22.3227 22.8748C22.3227 22.5275 22.2584 22.2115 22.1297 21.9268C22.0009 21.6422 21.8079 21.3811 21.5504 21.1435ZM17.154 21.4676C17.529 21.4676 17.8473 21.3349 18.1091 21.0694C18.3708 20.804 18.5016 20.4781 18.5016 20.0919C18.5016 19.7055 18.3717 19.3776 18.1117 19.1079C17.8518 18.8383 17.5328 18.7035 17.1547 18.7035C16.7766 18.7035 16.4594 18.8374 16.2031 19.1052C15.9468 19.373 15.8187 19.7017 15.8187 20.0912C15.8187 20.4807 15.9475 20.8075 16.2052 21.0716C16.4629 21.3356 16.7792 21.4676 17.154 21.4676ZM3.12196 22.2611V10.4626H0L12 0.5L24 10.4626H20.878V11.8664H19.8049V8.41209L12 1.90886L4.19512 8.41209V21.1555H8.09266V22.2611H3.12196Z" fill="inherit"></path>
  </symbol>
  <symbol  xmlns="http://www.w3.org/2000/svg" viewBox="0 0 24 23" id="menu_news">
    <path d="M5.17611 18.0295C5.43829 18.0295 5.65672 17.9388 5.8314 17.7576C6.00609 17.5762 6.09343 17.3525 6.09343 17.0864C6.09343 16.8202 6.00609 16.5935 5.8314 16.4064C5.65672 16.2192 5.44112 16.1256 5.1846 16.1256C4.92809 16.1256 4.70966 16.2193 4.5293 16.4066C4.34896 16.5938 4.2588 16.8175 4.2588 17.0775C4.2588 17.3496 4.34904 17.5762 4.52954 17.7576C4.71003 17.9388 4.92555 18.0295 5.17611 18.0295ZM4.61552 13.7987H5.73669V5.27901H4.61552V13.7987ZM11.4394 17.721H19.3845V16.5575H11.4394V17.721ZM11.4394 12.0535H19.3845V10.89H11.4394V12.0535ZM11.4394 6.44247H19.3845V5.27901H11.4394V6.44247ZM1.93659 22.5C1.39384 22.5 0.935391 22.3059 0.561248 21.9176C0.187083 21.5293 0 21.0536 0 20.4904V2.50959C0 1.94637 0.187083 1.47064 0.561248 1.08238C0.935391 0.694127 1.39384 0.5 1.93659 0.5H22.0634C22.6062 0.5 23.0646 0.694127 23.4387 1.08238C23.8129 1.47064 24 1.94637 24 2.50959V20.4904C24 21.0536 23.8129 21.5293 23.4387 21.9176C23.0646 22.3059 22.6062 22.5 22.0634 22.5H1.93659ZM1.93659 21.3365H22.0634C22.2673 21.3365 22.4541 21.2484 22.624 21.0721C22.7939 20.8959 22.8788 20.7019 22.8788 20.4904V2.50959C22.8788 2.29805 22.7939 2.10414 22.624 1.92787C22.4541 1.75159 22.2673 1.66345 22.0634 1.66345H1.93659C1.73274 1.66345 1.54588 1.75159 1.376 1.92787C1.20612 2.10414 1.12117 2.29805 1.12117 2.50959V20.4904C1.12117 20.7019 1.20612 20.8959 1.376 21.0721C1.54588 21.2484 1.73274 21.3365 1.93659 21.3365Z" fill="inherit"></path>
  </symbol>
  <symbol  xmlns="http://www.w3.org/2000/svg" viewBox="0 0 22 27" id="menu_safety">
    <path fill-rule="evenodd" clip-rule="evenodd" d="M11.0635 1.64754C10.9294 1.49477 10.6712 1.49475 10.5371 1.64754C8.78866 3.63989 5.49458 6.48959 1.76792 6.90981C1.67719 6.92004 1.60106 6.96058 1.55206 7.00982C1.50623 7.05587 1.48812 7.10356 1.48677 7.15129C1.40643 10.0084 1.78921 14.0132 3.18307 17.5191C4.57354 21.0164 6.92812 23.9293 10.7626 24.8379C10.7858 24.8434 10.8149 24.8434 10.838 24.8379C14.6725 23.9293 17.0268 21.0164 18.4171 17.5191C19.8107 14.0133 20.1932 10.0084 20.1128 7.1513C20.1115 7.10357 20.0934 7.05588 20.0475 7.00982C19.9985 6.96058 19.9224 6.92004 19.8317 6.90981C16.1051 6.48958 12.8117 3.63986 11.0635 1.64754ZM9.52582 0.702435C10.2015 -0.0674826 11.3992 -0.0674932 12.0748 0.702493C13.7559 2.61827 16.7608 5.14719 19.9799 5.51019C20.7283 5.59459 21.451 6.20136 21.4766 7.11043C21.5607 10.0985 21.1663 14.3128 19.6793 18.0535C18.189 21.8027 15.5591 25.1638 11.1433 26.2102C10.9193 26.2633 10.6814 26.2633 10.4573 26.2102C6.04159 25.1638 3.41144 21.8027 1.92082 18.0535C0.4336 14.3128 0.0389538 10.0985 0.122985 7.11044C0.14855 6.20136 0.871244 5.59459 1.61972 5.51019C4.83891 5.14719 7.84458 2.61819 9.52582 0.702435ZM10.5932 22.2301L7.73015 19.7638L7.71878 11.2557C7.4955 10.1167 7.77058 8.87531 8.55717 7.90291C9.89827 6.24502 12.2724 5.94764 13.8662 7.32065C15.4601 8.69366 15.6008 11.1573 14.2597 12.8152C13.8026 13.3803 13.2276 13.7865 12.6052 14.0229L12.2753 14.375L13.6322 15.5439L11.8516 17.7451L13.2481 18.9481L10.5932 22.2301ZM10.4201 20.247L11.3264 19.1267L9.92987 17.9237L11.7105 15.7225L10.2743 14.4853L11.8584 12.7942L12.0234 12.7405C12.4672 12.596 12.8837 12.3191 13.2123 11.913C14.1031 10.8117 13.969 9.24319 12.9919 8.40151C12.0148 7.55983 10.4954 7.70387 9.60457 8.80517C9.07491 9.45994 8.90587 10.2882 9.0665 11.0271L9.08294 11.1027L9.09363 19.1043L10.4201 20.247ZM12.0294 9.10147C11.6438 8.76926 11.0702 8.82257 10.7483 9.22053C10.4264 9.6185 10.478 10.2104 10.8637 10.5426C11.2493 10.8748 11.8229 10.8215 12.1448 10.4235C12.4667 10.0256 12.4151 9.43367 12.0294 9.10147Z" fill="inherit"></path>
  </symbol>
  <symbol  xmlns="http://www.w3.org/2000/svg" viewBox="0 0 26 25" id="menu_sale">
    <path d="M18.4702 11.4419C18.7524 11.4419 18.9984 11.331 19.2078 11.1092C19.4173 10.8874 19.5221 10.627 19.5221 10.3282C19.5221 10.0292 19.4173 9.76894 19.2078 9.54705C18.9984 9.32525 18.7524 9.21431 18.4702 9.21431C18.1879 9.21431 17.942 9.32525 17.7325 9.54705C17.523 9.76894 17.4182 10.0292 17.4182 10.3282C17.4182 10.627 17.523 10.8874 17.7325 11.1092C17.942 11.331 18.1879 11.4419 18.4702 11.4419ZM7.52999 7.93342H14.3676V6.70823H7.52999V7.93342ZM3.76931 24.8078C3.09956 22.2794 2.4193 19.771 1.72852 17.2826C1.03776 14.7941 0.692383 12.2346 0.692383 9.60413C0.692383 7.79234 1.29023 6.25341 2.48592 4.98736C3.68163 3.72133 5.13507 3.08831 6.84623 3.08831H14.3676C14.9585 2.26408 15.6566 1.57537 16.4622 1.02217C17.2679 0.46898 18.1651 0.192383 19.1539 0.192383C19.338 0.192383 19.498 0.26431 19.6339 0.408166C19.7697 0.552045 19.8377 0.721445 19.8377 0.916365C19.8377 0.968348 19.8294 1.02033 19.8127 1.07231C19.7961 1.1243 19.7824 1.17349 19.7719 1.2199C19.6106 1.65243 19.4813 2.09563 19.3841 2.54949C19.2868 3.00338 19.1977 3.45865 19.1171 3.91532L23.1223 8.1562H25.3078V15.7496L21.7075 17.0055L19.4958 24.8078H14.3676V21.9119H8.89751V24.8078H3.76931ZM4.64593 23.5826H7.74038V20.6867H15.5247V23.5826H18.6368L20.7616 16.0848L24.1507 14.8604V9.38137H22.6499L17.9968 4.45461C18.0003 3.92864 18.0416 3.42385 18.1208 2.94026C18.2 2.45668 18.3159 1.97945 18.4684 1.50855C17.7525 1.70902 17.1082 2.05384 16.5355 2.54301C15.9628 3.03215 15.5017 3.62232 15.1522 4.31351H6.84623C5.45683 4.31351 4.27669 4.8275 3.30581 5.85549C2.33494 6.88347 1.84951 8.13303 1.84951 9.60413C1.84951 12.0096 2.16363 14.3598 2.79187 16.6548C3.42011 18.9498 4.03813 21.2591 4.64593 23.5826Z" fill="inherit"></path>
  </symbol>
  <symbol  xmlns="http://www.w3.org/2000/svg" viewBox="0 0 18 18" id="menu_search">
    <path d="M6.5 13C4.68333 13 3.14583 12.3708 1.8875 11.1125C0.629167 9.85417 0 8.31667 0 6.5C0 4.68333 0.629167 3.14583 1.8875 1.8875C3.14583 0.629167 4.68333 0 6.5 0C8.31667 0 9.85417 0.629167 11.1125 1.8875C12.3708 3.14583 13 4.68333 13 6.5C13 7.23333 12.8833 7.925 12.65 8.575C12.4167 9.225 12.1 9.8 11.7 10.3L17.3 15.9C17.4833 16.0833 17.575 16.3167 17.575 16.6C17.575 16.8833 17.4833 17.1167 17.3 17.3C17.1167 17.4833 16.8833 17.575 16.6 17.575C16.3167 17.575 16.0833 17.4833 15.9 17.3L10.3 11.7C9.8 12.1 9.225 12.4167 8.575 12.65C7.925 12.8833 7.23333 13 6.5 13ZM6.5 11C7.75 11 8.8125 10.5625 9.6875 9.6875C10.5625 8.8125 11 7.75 11 6.5C11 5.25 10.5625 4.1875 9.6875 3.3125C8.8125 2.4375 7.75 2 6.5 2C5.25 2 4.1875 2.4375 3.3125 3.3125C2.4375 4.1875 2 5.25 2 6.5C2 7.75 2.4375 8.8125 3.3125 9.6875C4.1875 10.5625 5.25 11 6.5 11Z" fill="inherit"></path>
  </symbol>
  <symbol  xmlns="http://www.w3.org/2000/svg" viewBox="0 0 33 30" id="menu_solution">
    <path d="M26.2929 17.7C23.2105 17.7 20.6792 20.0489 20.4205 23.0437H19.1127C18.2031 23.0437 17.4676 22.3123 17.4676 21.4125V7.1625C17.4676 6.26267 18.2031 5.53125 19.1127 5.53125H21.8637C22.1169 7.73766 24.0041 9.45 26.2929 9.45C28.754 9.45 30.7511 7.46995 30.7511 5.025C30.7511 2.58005 28.754 0.6 26.2929 0.6C24.0041 0.6 22.1169 2.31233 21.8637 4.51875L19.1127 4.51875C17.643 4.51875 16.4496 5.70131 16.4496 7.1625V13.0688H9.89952C9.64628 10.8623 7.75903 9.15 5.47025 9.15C3.00918 9.15 1.01211 11.13 1.01211 13.575C1.01211 16.02 3.00918 18 5.47025 18C7.75903 18 9.64628 16.2877 9.89952 14.0812H16.4496V21.4125C16.4496 22.8737 17.643 24.0562 19.1127 24.0562H20.4205C20.6792 27.0511 23.2105 29.4 26.2929 29.4C29.5471 29.4 32.1871 26.782 32.1871 23.55C32.1871 20.318 29.5471 17.7 26.2929 17.7ZM26.2929 18.7125C28.987 18.7125 31.1691 20.8794 31.1691 23.55C31.1691 26.2206 28.987 28.3875 26.2929 28.3875C23.6005 28.3875 21.4195 26.2233 21.4168 23.5551V23.5449C21.4195 20.8766 23.6005 18.7125 26.2929 18.7125ZM26.2929 8.4375C24.3929 8.4375 22.8544 6.91021 22.8528 5.02801V5.02198C22.8544 3.13979 24.3929 1.6125 26.2929 1.6125C28.1939 1.6125 29.733 3.14142 29.733 5.025C29.733 6.90858 28.1939 8.4375 26.2929 8.4375ZM5.47025 10.1625C7.37127 10.1625 8.91037 11.6914 8.91037 13.575C8.91037 15.4586 7.37127 16.9875 5.47025 16.9875C3.56923 16.9875 2.03013 15.4586 2.03013 13.575C2.03013 11.6914 3.56923 10.1625 5.47025 10.1625Z" fill="inherit" stroke="black" stroke-width="0.3"></path>
  </symbol>
  <symbol  xmlns="http://www.w3.org/2000/svg" viewBox="0 0 28 28" id="menu_telephone">
    <path d="M11.5796 3.2032C11.4605 1.98988 10.4723 0.9375 9.16218 0.9375H7.58652C3.75099 0.9375 0.301261 4.14171 1.31774 8.13489L1.31808 8.1362C2.47649 12.6538 4.82753 16.7771 8.12531 20.0749C11.4231 23.3727 15.5464 25.7237 20.064 26.8821L20.0653 26.8825C24.0585 27.8989 27.2627 24.4492 27.2627 20.6137V19.038C27.2627 17.7272 26.2082 16.7403 24.9985 16.6191C23.634 16.4835 22.2939 16.1612 21.017 15.6613C20.7328 15.55 20.4096 15.6176 20.1937 15.8335L18.1895 17.8377C14.832 16.1038 12.0964 13.3682 10.3625 10.0107L12.3667 8.00646C12.5826 7.79054 12.6502 7.46723 12.5388 7.18291C12.0384 5.90608 11.7156 4.56661 11.5795 3.20201" stroke="black" stroke-width="1.1" stroke-linecap="round" stroke-linejoin="round"></path>
  </symbol>
  <symbol viewBox="0 0 16 16"  xmlns="http://www.w3.org/2000/svg" id="menu_cross">
    <path d="M6.65843 7.52117L1.12351 1.98625C0.672905 1.53565 0.672904 0.805072 1.12351 0.354467C1.57411 -0.0961381 2.30469 -0.0961384 2.75529 0.354467L8.29022 5.88939L13.6352 0.544419C14.0858 0.0938144 14.8164 0.0938146 15.267 0.544419C15.7176 0.995024 15.7176 1.7256 15.267 2.1762L9.922 7.52117L15.2656 12.8648C15.7162 13.3154 15.7162 14.046 15.2656 14.4966C14.815 14.9472 14.0845 14.9472 13.6339 14.4966L8.29022 9.15296L2.75662 14.6866C2.30602 15.1372 1.57544 15.1372 1.12484 14.6866C0.674233 14.2359 0.674233 13.5054 1.12484 13.0548L6.65843 7.52117Z" fill="#000"/>
  </symbol>
  <symbol xmlns="http://www.w3.org/2000/svg" viewBox="0 0 10 6" id="menu_arrow">
    <path d="M1 0.5L5 4.5L9 0.5" fill="inherit" stroke="inherit"/>
  </symbol>

  <symbol xmlns="http://www.w3.org/2000/svg" viewBox="0 0 50 50" id="usluga_calendar">
    <path d="M45.0423 49.6667H4.95898C2.39982 49.6667 0.333984 47.6009 0.333984 45.0417V8.04171C0.333984 5.48254 2.39982 3.41671 4.95898 3.41671H45.0423C47.6015 3.41671 49.6673 5.48254 49.6673 8.04171V45.0417C49.6673 47.6009 47.6015 49.6667 45.0423 49.6667ZM4.95898 6.50004C4.09565 6.50004 3.41732 7.17837 3.41732 8.04171V45.0417C3.41732 45.905 4.09565 46.5834 4.95898 46.5834H45.0423C45.9057 46.5834 46.584 45.905 46.584 45.0417V8.04171C46.584 7.17837 45.9057 6.50004 45.0423 6.50004H4.95898Z" fill="#4D5EFF"></path>
    <path d="M14.209 12.6667C13.3457 12.6667 12.6673 11.9884 12.6673 11.125V1.87504C12.6673 1.01171 13.3457 0.333374 14.209 0.333374C15.0723 0.333374 15.7507 1.01171 15.7507 1.87504V11.125C15.7507 11.9884 15.0723 12.6667 14.209 12.6667ZM35.7923 12.6667C34.929 12.6667 34.2507 11.9884 34.2507 11.125V1.87504C34.2507 1.01171 34.929 0.333374 35.7923 0.333374C36.6557 0.333374 37.334 1.01171 37.334 1.87504V11.125C37.334 11.9884 36.6557 12.6667 35.7923 12.6667ZM48.1257 18.8334H1.87565C1.01232 18.8334 0.333984 18.155 0.333984 17.2917C0.333984 16.4284 1.01232 15.75 1.87565 15.75H48.1257C48.989 15.75 49.6673 16.4284 49.6673 17.2917C49.6673 18.155 48.989 18.8334 48.1257 18.8334Z" fill="#4D5EFF"></path>
    <path d="M12.6673 31.1667C14.3702 31.1667 15.7507 29.7863 15.7507 28.0834C15.7507 26.3805 14.3702 25 12.6673 25C10.9644 25 9.58398 26.3805 9.58398 28.0834C9.58398 29.7863 10.9644 31.1667 12.6673 31.1667Z" fill="#4D5EFF"></path>
    <path d="M25.0007 31.1667C26.7035 31.1667 28.084 29.7863 28.084 28.0834C28.084 26.3805 26.7035 25 25.0007 25C23.2978 25 21.9173 26.3805 21.9173 28.0834C21.9173 29.7863 23.2978 31.1667 25.0007 31.1667Z" fill="#4D5EFF"></path>
    <path d="M37.334 31.1667C39.0369 31.1667 40.4173 29.7863 40.4173 28.0834C40.4173 26.3805 39.0369 25 37.334 25C35.6311 25 34.2507 26.3805 34.2507 28.0834C34.2507 29.7863 35.6311 31.1667 37.334 31.1667Z" fill="#4D5EFF"></path>
    <path d="M12.6673 40.4167C14.3702 40.4167 15.7507 39.0363 15.7507 37.3334C15.7507 35.6305 14.3702 34.25 12.6673 34.25C10.9644 34.25 9.58398 35.6305 9.58398 37.3334C9.58398 39.0363 10.9644 40.4167 12.6673 40.4167Z" fill="#4D5EFF"></path>
    <path d="M25.0007 40.4167C26.7035 40.4167 28.084 39.0363 28.084 37.3334C28.084 35.6305 26.7035 34.25 25.0007 34.25C23.2978 34.25 21.9173 35.6305 21.9173 37.3334C21.9173 39.0363 23.2978 40.4167 25.0007 40.4167Z" fill="#4D5EFF"></path>
    <path d="M37.334 40.4167C39.0369 40.4167 40.4173 39.0363 40.4173 37.3334C40.4173 35.6305 39.0369 34.25 37.334 34.25C35.6311 34.25 34.2507 35.6305 34.2507 37.3334C34.2507 39.0363 35.6311 40.4167 37.334 40.4167Z" fill="#4D5EFF"></path>
  </symbol>
  <symbol xmlns="http://www.w3.org/2000/svg" viewBox="0 0 48 54" id="ddos">
    <path fill-rule="evenodd" clip-rule="evenodd" d="M23.5867 0.851957C23.8658 0.771477 24.162 0.771516 24.4412 0.852071L46.3561 7.17636C47.016 7.36679 47.4703 7.97078 47.4703 8.65758V21.6262C47.4694 28.6006 45.2472 35.3961 41.1211 41.0502C36.9952 46.704 31.1755 50.9292 24.4886 53.131C24.1755 53.234 23.8377 53.2341 23.5246 53.1311C16.8352 50.9302 11.0131 46.7046 6.88567 41.0495C2.75801 35.3941 0.535259 28.5966 0.535156 21.6202V8.65758C0.535156 7.97062 0.989683 7.36655 1.64976 7.17625L23.5867 0.851957ZM3.61849 9.81758V21.6202C3.61858 27.9401 5.632 34.1017 9.37621 39.2318C13.0214 44.2261 18.1277 47.9969 24.0062 50.0392C29.8825 47.9962 34.9867 44.2257 38.6304 39.2326C42.3732 34.1039 44.3861 27.9443 44.387 21.6262V9.81726L24.0135 3.93781L3.61849 9.81758Z" fill="#4D5EFF"></path>
    <path fill-rule="evenodd" clip-rule="evenodd" d="M38.7966 17.6876C39.3986 18.2897 39.3986 19.2658 38.7966 19.8679L22.3521 36.3123C21.7501 36.9144 20.7739 36.9144 20.1719 36.3123L10.5793 26.7197C9.97724 26.1177 9.97724 25.1415 10.5793 24.5395C11.1814 23.9374 12.1575 23.9374 12.7595 24.5395L21.262 33.0419L36.6163 17.6876C37.2184 17.0856 38.1945 17.0856 38.7966 17.6876Z" fill="#4D5EFF"></path>
  </symbol>
  <symbol xmlns="http://www.w3.org/2000/svg" viewBox="0 0 52 48" id="headphones">
    <path fill-rule="evenodd" clip-rule="evenodd" d="M9.58461 15.2785C7.19198 15.085 5.84421 16.7454 5.02225 17.758L4.88736 17.9236L4.85821 17.959C3.75557 19.2964 2.8734 20.3664 2.22053 21.2923C1.55074 22.2422 1.05501 23.1313 0.781601 24.13C0.374868 25.6154 0.374898 27.1833 0.781601 28.6687C1.16043 30.053 1.92559 31.2541 2.70317 32.2715C3.17352 32.8869 3.73619 33.5392 4.23903 34.1221C4.52078 34.4487 4.78375 34.7535 5.00116 35.0179L5.00237 35.0193L5.05922 35.0884C5.88917 36.0967 7.21595 37.7075 9.58461 37.5178C10.3987 37.4521 11.1763 37.0958 12.0648 36.6887L12.2476 36.6051L12.3633 36.5527C13.0483 36.2431 13.6589 35.9671 14.147 35.5439L14.1484 35.5427C15.5529 34.3217 15.5521 32.7135 15.5515 31.7205L15.5515 31.6645V21.1342L15.5515 21.0778C15.5521 20.083 15.5529 18.4746 14.1484 17.2536L14.147 17.2524C13.6702 16.839 13.0683 16.5649 12.4127 16.2665L12.2504 16.1925L12.247 16.191L12.0364 16.095C11.164 15.6967 10.3902 15.3436 9.58461 15.2785ZM3.75545 27.8543C3.54294 27.0783 3.5036 26.2672 3.6374 25.4782C3.66781 25.2989 3.70718 25.1206 3.75549 24.9442C3.89697 24.4274 4.17462 23.8716 4.74045 23.0691C5.31703 22.2514 6.12218 21.2729 7.2687 19.8822L7.271 19.8794C8.30543 18.6187 8.66561 18.2975 9.33617 18.3518L9.83861 18.5503L10.9699 18.9974C11.8744 19.4109 12.0283 19.4965 12.1264 19.5814C12.278 19.7135 12.3465 19.8389 12.3932 20.028C12.4546 20.2769 12.4682 20.5916 12.4682 21.1342V31.6645C12.4682 32.2058 12.4546 32.5199 12.3932 32.7683C12.3466 32.9572 12.2781 33.0828 12.1263 33.215C12.0282 33.2998 11.8693 33.3916 10.9732 33.7974L10.969 33.7993C9.78403 34.3404 9.53691 34.4281 9.33753 34.4444C8.70581 34.495 8.33477 34.2143 7.38142 33.0579C7.05972 32.6668 6.75462 32.3147 6.45797 31.9723C6.01306 31.4589 5.58718 30.9673 5.15292 30.3992C4.47248 29.5089 3.98099 28.6786 3.75545 27.8543Z" fill="#4D5EFF"></path>
    <path fill-rule="evenodd" clip-rule="evenodd" d="M45.0231 15.8419C44.2307 15.3979 43.318 15.2069 42.4187 15.2783L42.4166 15.2785C41.6008 15.3443 40.8222 15.7018 39.9332 16.1099L39.754 16.1921C39.7062 16.2138 39.6557 16.2365 39.6026 16.2602L39.601 16.2609C38.7419 16.6454 37.2306 17.3217 36.6554 19.0271C36.4469 19.6446 36.4482 20.3079 36.4495 20.976L36.4497 21.1342V31.6621L36.4495 31.8203C36.4482 32.4884 36.4469 33.1517 36.6554 33.7692C37.2308 35.4753 38.7403 36.151 39.6004 36.5361C39.6536 36.56 39.7044 36.5827 39.7524 36.6045L39.9364 36.6887C40.8236 37.0952 41.6003 37.4511 42.4131 37.5175C43.3174 37.5926 44.2238 37.3978 45.0174 36.9577L45.0262 36.9527C45.7402 36.5506 46.2801 35.8937 46.869 35.1772L46.9987 35.0195L46.9999 35.0181C47.2173 34.7538 47.4795 34.4498 47.7603 34.1243C48.264 33.5404 48.8275 32.8872 49.299 32.2698C50.0762 31.2521 50.84 30.0508 51.2175 28.6652C51.626 27.178 51.6257 25.6166 51.2173 24.128C50.9451 23.1301 50.4497 22.2415 49.7811 21.2923C49.1322 20.3711 48.256 19.3064 47.1622 17.9771L47.115 17.9198C47.0674 17.8618 46.9947 17.7695 46.9094 17.6612C46.7356 17.4405 46.5089 17.1525 46.3324 16.9503C46.0162 16.5879 45.5889 16.1585 45.0231 15.8419ZM43.5162 18.5319C43.273 18.3956 42.9727 18.3276 42.6637 18.3519C42.4649 18.3682 42.2175 18.4557 41.0358 18.9964L41.0328 18.9978C40.5107 19.2353 40.1886 19.3837 39.9349 19.5672C39.7273 19.7174 39.6332 19.8459 39.577 20.0127C39.5525 20.085 39.533 20.1961 39.533 21.1342V31.6621C39.533 32.6002 39.5523 32.7105 39.5767 32.7828C39.6332 32.9506 39.7279 33.0799 39.9346 33.2297C40.1874 33.4129 40.5089 33.5612 41.0304 33.7985L41.0322 33.7993C42.2191 34.3413 42.4651 34.4284 42.6647 34.4445L42.6682 34.4448C42.9628 34.4692 43.2581 34.4063 43.5171 34.2639C43.6613 34.1815 43.8243 34.0226 44.6199 33.0578C44.9407 32.6679 45.2451 32.3165 45.541 31.975C45.9873 31.4599 46.4142 30.9672 46.8485 30.3985C47.528 29.5087 48.0181 28.6792 48.2427 27.8542L48.2438 27.8503C48.5059 26.8975 48.5061 25.8991 48.2436 24.9429L48.2429 24.9402C48.1026 24.4255 47.8259 23.8708 47.2603 23.0679C46.6841 22.2499 45.8795 21.2709 44.734 19.8787C44.5801 19.6917 44.473 19.5537 44.3776 19.4308C44.2593 19.2784 44.1589 19.149 44.0092 18.9774C43.7919 18.7285 43.6359 18.5988 43.5162 18.5319Z" fill="#4D5EFF"></path>
    <path fill-rule="evenodd" clip-rule="evenodd" d="M25.9962 3.95833C17.3449 3.95833 10.7509 9.92397 10.7509 16.8056C10.7509 17.657 10.0606 18.3472 9.2092 18.3472C8.35776 18.3472 7.66753 17.657 7.66753 16.8056C7.66753 7.79222 16.1051 0.875 25.9962 0.875C35.8873 0.875 44.3249 7.79222 44.3249 16.8056C44.3249 17.657 43.6347 18.3472 42.7833 18.3472C41.9318 18.3472 41.2416 17.657 41.2416 16.8056C41.2416 9.92397 34.6476 3.95833 25.9962 3.95833ZM42.7833 34.4491C43.6347 34.4491 44.3249 35.1393 44.3249 35.9907V37.9093C44.3249 43.3012 39.0036 47.125 33.1907 47.125H28.3944C27.5429 47.125 26.8527 46.4348 26.8527 45.5833C26.8527 44.7319 27.5429 44.0417 28.3944 44.0417H33.1907C37.9776 44.0417 41.2416 40.9924 41.2416 37.9093V35.9907C41.2416 35.1393 41.9318 34.4491 42.7833 34.4491Z" fill="#4D5EFF"></path>
  </symbol>

  <symbol xmlns="http://www.w3.org/2000/svg" viewBox="0 0 54 32" id="ipv6">
    <rect x="1.68281" y="0.897656" width="50.6339" height="30.2046" rx="2.4" stroke="#4D5EFF" stroke-width="1.6"/>
    <path d="M37.5404 17.2474C37.5404 17.7442 37.4144 18.1942 37.1624 18.5974C36.9176 19.0006 36.5828 19.321 36.158 19.5586C35.7404 19.7962 35.2652 19.915 34.7324 19.915C34.1564 19.915 33.656 19.7746 33.2312 19.4938C32.8136 19.213 32.4896 18.8098 32.2592 18.2842C32.0288 17.7586 31.9136 17.1286 31.9136 16.3942C31.9136 15.4654 32.0324 14.6806 32.27 14.0398C32.5148 13.3918 32.8604 12.9058 33.3068 12.5818C33.7532 12.2506 34.2788 12.085 34.8836 12.085C35.366 12.085 35.8088 12.1894 36.212 12.3982C36.6224 12.607 36.968 12.9058 37.2488 13.2946L36.4172 14.2018C36.2444 13.9354 36.0212 13.7266 35.7476 13.5754C35.474 13.417 35.1788 13.3378 34.862 13.3378C34.538 13.3378 34.2572 13.4242 34.0196 13.597C33.782 13.7698 33.5984 14.0218 33.4688 14.353C33.3392 14.677 33.2672 15.0694 33.2528 15.5302C33.3536 15.3574 33.4832 15.2098 33.6416 15.0874C33.8 14.9578 33.9836 14.8606 34.1924 14.7958C34.4012 14.7238 34.6244 14.6878 34.862 14.6878C35.3732 14.6878 35.8304 14.803 36.2336 15.0334C36.6368 15.2566 36.9536 15.5626 37.184 15.9514C37.4216 16.333 37.5404 16.765 37.5404 17.2474ZM34.7324 18.6946C34.9916 18.6946 35.2292 18.6298 35.4452 18.5002C35.6612 18.3634 35.834 18.187 35.9636 17.971C36.0932 17.7478 36.158 17.5066 36.158 17.2474C36.158 16.9882 36.0932 16.7542 35.9636 16.5454C35.834 16.3294 35.6612 16.1602 35.4452 16.0378C35.2364 15.9082 35.0024 15.8434 34.7432 15.8434C34.484 15.8434 34.2464 15.9082 34.0304 16.0378C33.8144 16.1602 33.6416 16.3294 33.512 16.5454C33.3896 16.7542 33.3284 16.9882 33.3284 17.2474C33.3284 17.5066 33.3932 17.7478 33.5228 17.971C33.6524 18.187 33.8252 18.3634 34.0412 18.5002C34.2572 18.6298 34.4876 18.6946 34.7324 18.6946Z" fill="#4D5EFF"/>
    <path d="M27.6605 19.807L25.5761 14.1478H27.0773L28.5029 18.4894L29.9393 14.1478H31.3109L29.2373 19.807H27.6605Z" fill="#4D5EFF"/>
    <path d="M19.5492 19.807V12.139H22.8C23.1528 12.139 23.4768 12.211 23.772 12.355C24.0672 12.499 24.3228 12.6934 24.5388 12.9382C24.762 13.183 24.9348 13.4566 25.0572 13.759C25.1796 14.0614 25.2408 14.371 25.2408 14.6878C25.2408 15.1198 25.14 15.5302 24.9384 15.919C24.7368 16.3078 24.4596 16.6246 24.1068 16.8694C23.754 17.1142 23.3364 17.2366 22.854 17.2366H21.0396V19.807H19.5492ZM21.0396 15.9298H22.7676C22.9476 15.9298 23.1096 15.8794 23.2536 15.7786C23.3976 15.6778 23.5128 15.5338 23.5992 15.3466C23.6856 15.1522 23.7288 14.9326 23.7288 14.6878C23.7288 14.4214 23.6784 14.1946 23.5776 14.0074C23.484 13.8202 23.358 13.6798 23.1996 13.5862C23.0484 13.4926 22.8828 13.4458 22.7028 13.4458H21.0396V15.9298Z" fill="#4D5EFF"/>
    <path d="M16.459 19.807V12.139H17.9494V19.807H16.459Z" fill="#4D5EFF"/>
  </symbol>
  <symbol xmlns="http://www.w3.org/2000/svg" viewBox="0 0 48 48" id="key">
    <path fill-rule="evenodd" clip-rule="evenodd" d="M33.4107 0.855693C29.9048 0.459436 26.3682 1.26468 23.3795 3.1397C20.3908 5.01473 18.1269 7.84851 16.9581 11.1775C15.8981 14.1966 15.7958 17.4608 16.6517 20.5277L2.59236 34.587C1.49308 35.686 0.875332 37.177 0.875 38.7315V43.4232C0.875 44.405 1.26501 45.3466 1.95922 46.0408C2.65344 46.735 3.595 47.125 4.57677 47.125H11.0571C12.0388 47.125 12.9804 46.735 13.6746 46.0408C14.3688 45.3466 14.7588 44.405 14.7588 43.4232V41.2631C14.7588 41.0991 14.824 40.9418 14.94 40.8258C15.0559 40.7099 15.2132 40.6447 15.3773 40.6447H17.5374C18.5191 40.6447 19.4607 40.2547 20.1549 39.5605C20.8491 38.8663 21.2391 37.9247 21.2391 36.9429V34.7828C21.2391 34.6188 21.3043 34.4615 21.4203 34.3455C21.5362 34.2296 21.6935 34.1644 21.8576 34.1644H22.2294C23.7839 34.1641 25.2747 33.5462 26.3738 32.4469L27.4723 31.3483C30.5392 32.2042 33.8034 32.1019 36.8225 31.0419C40.1515 29.8731 42.9853 27.6092 44.8603 24.6205C46.7353 21.6318 47.5406 18.0952 47.1443 14.5893C46.7481 11.0835 45.1738 7.81586 42.679 5.32106C40.1841 2.82625 36.9165 1.25195 33.4107 0.855693ZM33.0644 3.91952C30.2522 3.60167 27.4155 4.24758 25.0181 5.75158C22.6208 7.25559 20.8049 9.52864 19.8674 12.1989C18.9298 14.8692 18.9263 17.7785 19.8573 20.4511C20.0518 21.0096 19.9097 21.6301 19.4915 22.0483L4.77261 36.7672C4.25157 37.2881 3.95858 37.9948 3.95833 38.7315V43.4232C3.95833 43.5873 4.02349 43.7446 4.13947 43.8605C4.25544 43.9765 4.41274 44.0417 4.57677 44.0417H11.0571C11.2211 44.0417 11.3784 43.9765 11.4944 43.8605C11.6103 43.7446 11.6755 43.5873 11.6755 43.4232V41.2631C11.6755 40.2814 12.0655 39.3398 12.7597 38.6456C13.4539 37.9514 14.3955 37.5614 15.3773 37.5614H17.5374C17.7014 37.5614 17.8587 37.4962 17.9747 37.3802C18.0906 37.2643 18.1558 37.107 18.1558 36.9429V34.7828C18.1558 33.8011 18.5458 32.8595 19.24 32.1653C19.9342 31.4711 20.8758 31.0811 21.8576 31.0811H22.2288C22.9655 31.0808 23.6723 30.788 24.1932 30.267L25.9517 28.5085C26.3699 28.0903 26.9904 27.9482 27.5489 28.1427C30.2215 29.0737 33.1309 29.0702 35.8011 28.1327C38.4714 27.1951 40.7444 25.3792 42.2484 22.9819C43.7524 20.5845 44.3983 17.7478 44.0805 14.9356C43.7626 12.1235 42.4999 9.50245 40.4987 7.5013C38.4976 5.50015 35.8765 4.23737 33.0644 3.91952Z" fill="#4D5EFF"></path>
    <path d="M33.7396 15.3421C34.3361 15.3421 34.8197 14.8585 34.8197 14.262C34.8197 13.6655 34.3361 13.182 33.7396 13.182C33.1431 13.182 32.6596 13.6655 32.6596 14.262C32.6596 14.8585 33.1431 15.3421 33.7396 15.3421Z" fill="#4D5EFF"></path>
    <path fill-rule="evenodd" clip-rule="evenodd" d="M33.7396 14.7237C33.9946 14.7237 34.2012 14.517 34.2012 14.262C34.2012 14.0071 33.9946 13.8004 33.7396 13.8004C33.4847 13.8004 33.278 14.0071 33.278 14.262C33.278 14.517 33.4847 14.7237 33.7396 14.7237ZM31.1179 14.262C31.1179 12.8141 32.2917 11.6403 33.7396 11.6403C35.1876 11.6403 36.3613 12.8141 36.3613 14.262C36.3613 15.71 35.1876 16.8838 33.7396 16.8838C32.2917 16.8838 31.1179 15.71 31.1179 14.262Z" fill="#4D5EFF"></path>
  </symbol>
  <symbol xmlns="http://www.w3.org/2000/svg" viewBox="0 0 50 41" id="mail">
    <path fill-rule="evenodd" clip-rule="evenodd" d="M16.7784 8.43329V3.08885C16.7784 1.61302 18.0055 0.416626 19.5192 0.416626H30.4821C31.9958 0.416626 33.2229 1.61302 33.2229 3.08885V8.43329H46.9266C48.4402 8.43329 49.6673 9.62969 49.6673 11.1055V37.8277C49.6673 39.3036 48.4402 40.5 46.9266 40.5H3.07473C1.56106 40.5 0.333984 39.3036 0.333984 37.8277V11.1055C0.333984 9.62969 1.56106 8.43329 3.07473 8.43329H16.7784ZM19.5192 3.08885H30.4821V8.43329H19.5192V3.08885ZM3.07473 11.1055V13.7777V37.8277H46.9266V13.7777V11.1055H3.07473Z" fill="#4D5EFF"></path>
    <path d="M25.0007 24.4666L3.07473 11.1055V13.7777L25.0007 27.1388L46.9266 13.7777V11.1055L25.0007 24.4666Z" fill="#4D5EFF"></path>
    <path d="M23.6303 20.4583H26.371V16.45H23.6303V20.4583Z" fill="#4D5EFF"></path>
  </symbol>
  <symbol xmlns="http://www.w3.org/2000/svg" viewBox="0 0 50 50" id="ruble">
    <path fill-rule="evenodd" clip-rule="evenodd" d="M25.0007 46.5834C36.9208 46.5834 46.584 36.9202 46.584 25C46.584 13.0799 36.9208 3.41671 25.0007 3.41671C13.0805 3.41671 3.41732 13.0799 3.41732 25C3.41732 36.9202 13.0805 46.5834 25.0007 46.5834ZM25.0007 49.6667C38.6237 49.6667 49.6673 38.6231 49.6673 25C49.6673 11.377 38.6237 0.333374 25.0007 0.333374C11.3776 0.333374 0.333984 11.377 0.333984 25C0.333984 38.6231 11.3776 49.6667 25.0007 49.6667Z" fill="#4D5EFF"></path>
    <path d="M18.9793 38.875V11.125H26.6387C30.3517 11.125 33.0556 11.8505 34.7507 13.3015C36.4726 14.7525 37.3336 16.7476 37.3336 19.2868C37.3336 20.7896 36.9838 22.2017 36.2843 23.5232C35.5847 24.8446 34.4143 25.9069 32.7731 26.7101C31.1588 27.5133 28.9526 27.915 26.1545 27.915H23.5312V38.875H18.9793ZM15.7507 34.7164V30.9465H26.6387V34.7164H15.7507ZM15.7507 27.915V23.0956H26.0334V27.915H15.7507ZM25.5491 23.0956C26.706 23.0956 27.7015 22.979 28.5356 22.7458C29.3696 22.4867 30.0153 22.0851 30.4727 21.541C30.9301 20.9969 31.1588 20.3103 31.1588 19.4811C31.1588 18.2893 30.7687 17.4083 29.9884 16.8383C29.2082 16.2423 27.984 15.9444 26.3159 15.9444H23.5312V23.0956H25.5491Z" fill="#4D5EFF"></path>
  </symbol>
  <symbol xmlns="http://www.w3.org/2000/svg" viewBox="0 0 52 42" id="speed">
    <path fill-rule="evenodd" clip-rule="evenodd" d="M26.0051 4.04171C13.7201 4.04171 3.76107 14.0007 3.76107 26.2858C3.76107 30.3101 4.82838 34.0805 6.69433 37.3343C6.9023 37.697 7.33371 37.9584 7.87121 37.9584H44.139C44.6765 37.9584 45.1079 37.697 45.3159 37.3343C47.1818 34.0805 48.2492 30.3101 48.2492 26.2858C48.2492 14.0007 38.2902 4.04171 26.0051 4.04171ZM0.677734 26.2858C0.677734 12.2978 12.0172 0.958374 26.0051 0.958374C39.993 0.958374 51.3325 12.2978 51.3325 26.2858C51.3325 30.8624 50.1172 35.16 47.9906 38.8682C47.1749 40.2906 45.6593 41.0417 44.139 41.0417H7.87121C6.35097 41.0417 4.8353 40.2906 4.0196 38.8682C1.89304 35.16 0.677734 30.8624 0.677734 26.2858Z" fill="#4D5EFF"></path>
    <path d="M28.6027 27.6663C26.6651 29.6039 23.5237 29.6039 21.5861 27.6663C19.6485 25.7287 19.6485 22.5873 21.5861 20.6497C22.9185 19.3174 30.1597 15.3938 34.5536 13.0726C35.6139 12.5124 36.74 13.6385 36.1799 14.6988C33.8586 19.0927 29.935 26.334 28.6027 27.6663Z" fill="#4D5EFF"></path>
  </symbol>
  <symbol xmlns="http://www.w3.org/2000/svg" viewBox="0 0 28 28" id="info">
    <path d="M12.666 10H15.3327V7.33335H12.666M13.9993 24.6667C8.11935 24.6667 3.33268 19.88 3.33268 14C3.33268 8.12002 8.11935 3.33335 13.9993 3.33335C19.8793 3.33335 24.666 8.12002 24.666 14C24.666 19.88 19.8793 24.6667 13.9993 24.6667ZM13.9993 0.666687C12.2484 0.666687 10.5146 1.01156 8.8969 1.68163C7.27923 2.35169 5.80937 3.33382 4.57126 4.57193C2.07077 7.07241 0.666016 10.4638 0.666016 14C0.666016 17.5362 2.07077 20.9276 4.57126 23.4281C5.80937 24.6662 7.27923 25.6484 8.8969 26.3184C10.5146 26.9885 12.2484 27.3334 13.9993 27.3334C17.5356 27.3334 20.927 25.9286 23.4274 23.4281C25.9279 20.9276 27.3327 17.5362 27.3327 14C27.3327 12.2491 26.9878 10.5152 26.3177 8.89757C25.6477 7.2799 24.6656 5.81004 23.4274 4.57193C22.1893 3.33382 20.7195 2.35169 19.1018 1.68163C17.4841 1.01156 15.7503 0.666687 13.9993 0.666687ZM12.666 20.6667H15.3327V12.6667H12.666V20.6667Z"/>
  </symbol>
  <symbol xmlns="http://www.w3.org/2000/svg" viewBox="0 0 22 15" id="tick">
    <path d="M1.40039 4.8001L9.40039 12.8001L20.6004 1.6001" stroke="white" stroke-width="2.28571"/>
  </symbol>
  <symbol xmlns="http://www.w3.org/2000/svg" viewBox="0 0 52 59" id="player">
    <path d="M49.5 24.926C52.8333 26.8505 52.8333 31.6618 49.5 33.5863L7.50001 57.835C4.16668 59.7595 1.30768e-06 57.3539 1.47592e-06 53.5049L3.59581e-06 5.00747C3.76406e-06 1.15846 4.16667 -1.24717 7.5 0.677329L49.5 24.926Z" fill="#4D5EFF" fill-opacity="0.2"/>
  </symbol>
  <symbol xmlns="http://www.w3.org/2000/svg" viewBox="0 0 8 14" id="arrow-pagination">
    <path fill-rule="evenodd" clip-rule="evenodd" d="M0.646894 0.645917C0.693339 0.599354 0.748515 0.562411 0.80926 0.537205C0.870005 0.511998 0.935126 0.499023 1.00089 0.499023C1.06666 0.499023 1.13178 0.511998 1.19253 0.537205C1.25327 0.562411 1.30845 0.599354 1.35489 0.645917L7.35489 6.64592C7.40146 6.69236 7.4384 6.74754 7.46361 6.80828C7.48881 6.86903 7.50179 6.93415 7.50179 6.99992C7.50179 7.06568 7.48881 7.1308 7.46361 7.19155C7.4384 7.2523 7.40146 7.30747 7.35489 7.35392L1.35489 13.3539C1.26101 13.4478 1.13367 13.5005 1.00089 13.5005C0.868118 13.5005 0.74078 13.4478 0.646894 13.3539C0.553007 13.26 0.500262 13.1327 0.500262 12.9999C0.500262 12.8671 0.553007 12.7398 0.646894 12.6459L6.29389 6.99992L0.646894 1.35392C0.60033 1.30747 0.563387 1.2523 0.538181 1.19155C0.512974 1.13081 0.5 1.06568 0.5 0.999917C0.5 0.93415 0.512974 0.869029 0.538181 0.808284C0.563387 0.747539 0.60033 0.692363 0.646894 0.645917Z"/>
  </symbol>
  <symbol xmlns="http://www.w3.org/2000/svg" viewBox="0 0 94 100" id="arrow-news-item">
    <path opacity="0.7" d="M9.3601 0.627077C-2.13336 14.9239 -3.4583 38.5638 14.5118 60.0828C37.1841 87.2327 78.0421 86.1686 93.1707 85.4612M93.1707 85.4612L75.3592 99.4357M93.1707 85.4612L78.1034 70.4453" stroke="#3F4DCB" stroke-linecap="round" stroke-linejoin="round"/>
  </symbol>
</svg>